<mxfile host="app.diagrams.net" modified="2024-04-16T11:29:23.911Z" agent="Mozilla/5.0 (Windows NT 10.0; Win64; x64) AppleWebKit/537.36 (KHTML, like Gecko) Chrome/123.0.0.0 Safari/537.36" etag="BlctgR97pw9G-BgxmEfL" version="24.2.5" type="device">
  <diagram name="Page-1" id="AgT1qPYa_u5w1FnHR-iG">
    <mxGraphModel dx="2537" dy="2018" grid="1" gridSize="10" guides="1" tooltips="1" connect="1" arrows="1" fold="1" page="1" pageScale="1" pageWidth="850" pageHeight="1100" math="0" shadow="0">
      <root>
        <mxCell id="0" />
        <mxCell id="1" parent="0" />
        <mxCell id="i_ElwK9fDUj6FuIoGpUe-3" value="" style="shape=image;verticalLabelPosition=bottom;labelBackgroundColor=default;verticalAlign=top;aspect=fixed;imageAspect=0;image=data:image/png,iVBORw0KGgoAAAANSUhEUgAAAW8AAACJCAMAAADUiEkNAAAAYFBMVEX///8ArNcAqtYAp9UAptR8yuUArdg/t9zN6vVoxuO85PL8//9Fu97s+PxdwuEAr9jG6fQltNuc2OyIzebY8Pfy+/13yOSP0+nj9PqU1eqp3O6z4PBUv+DA5vOw3+/a8fgFzau/AAAMRUlEQVR4nN1d17biOgwdZFNSSIOEAAH+/y9vQg+kbLmFc/fTnLWG2JZlWZK35X///gjW28TP9rtNjd0+OybbfOoe/U+RX86bKCUphKAn6j9kvPQOzqUeBEEeOG7THdb+fDm7ynn2DZrVYqcwuzjox8XPNl64TOPFYjGLF2kaepssufyvJJ/M01qeHYJuS12IeLO11olge5iHzXJ6La7Za42JtDiX1tp2iPwYkejU6i6Rk0wzC4alPBapHJ7yWupy4fl/fC9JPBpX7A8tp8Kooq2P3kJiM17LnKrjnxV5vo+Zwn6IPDIl8TJrLBmnE7XIPXtGzSIunmQNtDVo6a31e7DOaiOi1PrS12/dLVaVVBX2bcxip9kDvwL26D6I9GhEDI6wrdSH+hrySr0DeaZmyp4gkZ7MycMuykhPtx9DloWiV5zPNVT71Xz4JxzEYKc/1seQYxUVr6VtpgP6Ns0B/IXKFtU74j23/WCnvEt/Q6Q/7qrkZkzJ24grXgeOJqe7aZ894S7hG9StOyhleIZlaHi6a4GHvxv/FMZHO2uSWXAaKzO2c7Ta1/CTbKJMzS7l54AJG/A6tNS+OFiWnBJ8O6NtBiwRgfs2lPsGObcuPTY20tZoGw0bdxPmFtuficiBBFmIrGl3A5qNhB6BJVvyANdNsox8aXe4s9li0EsoF9ZsyR0UupIlgHVse7gzWg60v7Le/E8J3IG46xVd9Laf2Nsp3zvwKzbc/mK+QvZlSH0bXn8HxG94KWsng23G2x1oHm06Ji3IX/DD89jVcLstqD23/xtQHGAXuQvbfUdXnJc4FHftlk6eS1m6E3eXRdk6MyZX0NRueORS3DP6dBHW5vORw5g4lTJ3uZpnXwY0Tx2Lu55yA7wBZbhzDR5oRz2hc3FPalEujrW7hnwnhrheXbceTHZs79I1eYDSV/vuV9e1B/FU8lbbK+901D5q8hjEU71KVe1+0mLVfj7Vlpnx1asRdRxtsvPpdMx2UYoTZ194WvCU3fytB7QIi81ut9t4N0I6+xMxxorZNQxzHYiWc3Bhi5vEovBb2/s6mafc5MejFwVfvRv263713oPS53cAVPCdJD3M2vPKVS8SXmc0vCp42T3yrj87cae7FvY86QoPL/MZswdpx1c+kWhvLm3fd8dTL6JNbyic4wydxiAlzW8Cph0gGfX7FcGBWKMBXJS1Pn2ylY3kxdEkNoM2L9gA421knRb+7UO8vbqe7ZEwhcXBA3xw7UDsY5dYcn4qq9GgbIxLQUKm3vn5GZY1qWd7PM1Ucg5A5dh4PF3jTTJ5/96B0TkiKELwej9Zy5q81mWmgOH515YEC8F3+ByKbOxbmyfmdxQ3eG1EN1QthGFYtcSdM8QtIpBU3L0jND7F1z1BxPw8fr9IOlvrAIPAguyYBjGHO8bhJn0pWC3rcL/6nq6SoYnobDfYwpuwcMoMxyM7mnH4vG8udXM7b7np9N84m6UcW/htbNGBuY0x4fFSyjsPuZGGrlHo/NT70xWq3iRgW3IHelrkNEsIR5a05N4HqUQja+84uMOhWVgiPlk+QzXc4f1vVL354q7HWxzGTOMK1UEFccODk+7uPaC7FZrX4aICp1soHaaDgatDA+5h46Vhxp8y0MhWKl5Z9aHv37M4DoD63gCFWAngdIuNagPQ9gDlrIxgj8l7NARTRI6ptwa7EnN/6PafL8/40RzadgHLxFhzmHagNdM4RocUXF639ZV2nqQjc9IyDKDzK2wRkbDMidZ2BjHkrq59PjN/gvtxPoqZT1vWBHUGh8ji40D4vqJh69rgY1Br4wkwa2JtNymg9jV5lUh6iPaW+Bhtc3KCmhC2yocEUJd1Nw9kEdVq6MPGe/hLbSiYk2H1zvfVUhmQvLWDP0TeRXOCG3cgHcBrIOET1fMfDaL20sSs93lgLOuFxu0PzJpp37RBQlgnGSssuKOhQN4+xVJoM84Ap9PN9ak9ZE6G7rlwTuLUYIBwBuxSbgJMLBQY8g4c3BzULxKDnDu4oBGC7sHAF+D8sjqEflXUNWA2XcgbIiAPpc4C+1cHTSz04Ef0+wxFugOV5ByotwFzAq1jF/Le4JmcbljIN3xC7ZjhA8Au40Le2NFK/+/tOye1vE0MdFzeTvwTyHcecEwdXIgw4hcD9nuwfkIntisArV/kkPfdv10eHag3KZ/rvAHxT7jzGkoxDtmKzJFuXBNnPXBxe29ot4YBJKy4B5iYp9DO20PJ5/7kCZsirwIj2yXghw0G0d+ATMNnYhU7+OjNxYZQk5oYpQojAPywgWXcBZBx2SaEQfa3l0Pm5qq7NEF6ATSDZ7dQzo5sxcaQDepd0ChPRw+DuUkUgHR4ditCNstmv2wd+0Jn430dYZCIdWBC3sg+NRTVfWOdJMkqeeDUwH/HscH5fG4flGjJG+eMa0EYkDcyzqGknClA4XyP/QY3aG1IA0QM5KqjHgMAAybv7o3EQabq1rw+jQ65TkD91eLMAZN3N9XGVW0D/cM0yJw44cdip2mdM4/xKAyA6Rd3AVEN6eCpNzC915lYAFmt+vgqucQGEtXRwsX9Bizf1OmRce7H6kHbcUC6qj+rCLBSf53Hxe7qiumSfaAsj5vrDRhZsvNAa/v+xKgi8QuD7nkalMR0c/8Sysf28D/WmTcOE3xTTfoJ5re6ud0AxizqK9pIglwrI4vV0SBbdOsPgHcbVO8SmTHyWnsZtsKMJH2N9aavkPEYDoYyWhqEH/BykqvS6xjbnXv2cYdyvbWv5pWpq2ARpEH+r0mgfAal7dvc6abkXpu/owSZ0kZy7AjQ+gkqpIT+ejNs0EJpdGuQbGeEAgABTqryK8ErVDMckIjKjg2/QuGw+AkclnP7dDZ7+qMQ/8GvULi7yg1mZK+dill5f1DceADKdsK3eA0bh7V98Or9rGIcoDGhFA5AiXhO4QG+VORSvaGbW49+hbDA0afXxAHKwN+aZ1U/KXBz5lK9WaQGtJhSUKFez4JTtJbwS6CXmKFGbh/h4VAusYc6E/jKQ3MyynHSJea3BXNGxV7XL5RwKg/OSI7mRnP8SdgrAxgsD3GDWAJr32co9wTFv3k5JZEOh3oZI+V9PXnnBf1jdWv//VstWbdv+axvXTDrLJMMeyWeZ5xC0PdzaGaKnCgbMABJyHT73W6WV3DTHCTTrCNfGCQesWoS309o2Qf9QhTd20i5j7lB1hSPo/OJOyTEcuOXr5W9XmURs8b5q+Y2n8hCMp6f2lMebPdLwb7HP8kTmFgFlK+u1qNbLMMoisL0+gf3988oA7qT+Pnr67sRu8OpuSJz3Bcpa2m9vjLJW0fMyvZv/b2W+lC7EvhWy1CRqUWPd1EUnsi4QbXCnibUFFwP76xAF7euOvsw1XOjrqiXL7TLHCs9BKONCd8vdv2ulGiniOD6yEbBS3gahTPy5Q1fQYYzMuJbH8i95/2Cm6s4j6HOPt0CG2X/RjDtS7quLitc0cGgx2rqGsRErskTDp/m63xcyLFFmf5hbmcD7h5q4OxR8GsfHNHXBhA4cspkT8bCGDlIow9OUTp5qbk/ge7OhP+AdjfQfwAPGOrAeQVI9dPvw+S2+w5T9MqBoQ4uZIUHMPmgqT2TNzAeHFPC2EI2yIDrg9obJ7bAeMZMYajjLNTItsApnfK1+W/Y1HACIjrLAheVw1eNIFgTOMVQvsKmDaef8AM/gPPAWIA1y94Ko3jSlEkfcEYhY6iM5x/OdiZ8JqPp8q+DKI1nwynmOAVbGyVpiVxdGVGA2V2LJLPUBcw/ZHThV5X7BpNGXMT8yzeZWZui0gW3KJeGVIzkTsUFM9Z+0wUDFT3sw4yKyUr11MqUipOc/7QpeWKtb8VlqOGB5Z4BiZMofiugHMJqyeBRfw91gNiJYcslX34Jm+ZTHgrz4aeKIyaSlYHoIgnVZ5xEPMSk/VH4PDr1Y6izjSHFWlVqbDUhKv06Y5Ng6xGTEk+RbzAtVG5i7pQLsexiTP8V5IelxIbcMCijs/FVfGWWg1ezScgw+1tWuwPrQ3WtnzQ00FrW6SaxlPA8FfEoD7bpwcI7/j2j3Ylgta8WN/IvtQZ5lTTF1T6xO9Ly0NC8O2b9SosWktLi/OcVu42gPB2KahmTfIDitPJ255UjpcpXdft18zfWdzPRTReWUZH5l/+JXnciWJflpSzX0xyXBOttcjpk+13mry65sT78BxxFxJL1Q7dRAAAAAElFTkSuQmCC;" parent="1" vertex="1">
          <mxGeometry x="103.24" y="199" width="233.04" height="87" as="geometry" />
        </mxCell>
        <mxCell id="bMk-UlgrDt2UOq0v8GuX-2" value="" style="shape=image;verticalLabelPosition=bottom;labelBackgroundColor=default;verticalAlign=top;aspect=fixed;imageAspect=0;image=https://miro.medium.com/v2/resize:fit:800/1*v2vdfKqD4MtmTSgNP0o5cg.png;" parent="1" vertex="1">
          <mxGeometry x="490" y="190" width="105" height="105" as="geometry" />
        </mxCell>
        <mxCell id="bMk-UlgrDt2UOq0v8GuX-3" value="" style="shape=image;verticalLabelPosition=bottom;labelBackgroundColor=default;verticalAlign=top;aspect=fixed;imageAspect=0;image=https://upload.wikimedia.org/wikipedia/commons/thumb/9/93/MongoDB_Logo.svg/2560px-MongoDB_Logo.svg.png;" parent="1" vertex="1">
          <mxGeometry x="369.75" y="406" width="345.51" height="93" as="geometry" />
        </mxCell>
        <mxCell id="bMk-UlgrDt2UOq0v8GuX-4" value="" style="shape=flexArrow;endArrow=classic;html=1;rounded=0;exitX=0.5;exitY=1;exitDx=0;exitDy=0;" parent="1" source="bMk-UlgrDt2UOq0v8GuX-2" edge="1">
          <mxGeometry width="50" height="50" relative="1" as="geometry">
            <mxPoint x="470" y="400" as="sourcePoint" />
            <mxPoint x="543" y="410" as="targetPoint" />
          </mxGeometry>
        </mxCell>
        <mxCell id="bMk-UlgrDt2UOq0v8GuX-5" value="" style="shape=image;verticalLabelPosition=bottom;labelBackgroundColor=default;verticalAlign=top;aspect=fixed;imageAspect=0;image=data:image/png,iVBORw0KGgoAAAANSUhEUgAAANIAAADwCAMAAABCI8pNAAAAh1BMVEX///8AAACMjIzy8vL5+fnt7e3d3d3Dw8Pg4OD8/Pyvr6/s7OxAQEDOzs5hYWHx8fG4uLjX19fKyspQUFB2dnapqamVlZWwsLCKioqhoaGampp+fn7S0tK/v79JSUkeHh4lJSU2NjZXV1cODg4vLy9sbGwhISFeXl47OzsTExNwcHB7e3sxMTG+aSOYAAAKrklEQVR4nN1d13bqOhCNwYDBEDqhh5aQhPP/33cxkmw1sC3PSPLdb2etE1kblemjtzdUfPSD4Hw5beaDJu6HrOE9yPB7WnTqz2seyOivIteTqoRYYfTAZux6Yubo6ykFwXej7XpuZpg+Y5Tg2Ou6nl9pjF4RemBWq6WKludcRnf0d64nWhSjp4dIwefc9WSLYFWYD8GH6wnnoVdoxwk4eL39xpfShBL0vb0oun9GhBL8+akqDcrvOQ4919PXYFmF0B1T3xYqLH5xP8XENQkB0Wd1RkGwdE2DwxiC0B0n10RSbIEY3WVU6JoLAdQaJfj04pKIABndOXmwTk1QRndOrgm9sF1N8e6aUVUJq8HKLaMBPKMgcKvFgohYGQeXjBYYjIJg7Y5RC4dREAydUZphUdq4YoS2SO6WaYNHqeGGUYjHKAjcUMp3qFbAyAmlEyalvQtGXUxGbi4IOMNPCxcOyzUupT8HlFCPkhtFD5eRi8OEqDoQdKxTgnSiaGFfHUcVtAlm1impSQ3A+LFOqWy0rzz+h5SspxEgS9o7YtuUkNwOHKynG+FTsu77wqe0/f9Rsq4+NNApWTcvVGf44bScT9otdvfG7e288X4wp2TdVhdXqd8YPNGcm+2PjVl0wzol7ixNe3mGQHew2NeH0mFdNBY5WJRbLetniWkPpe6l5qRRfLWs33iMUumMunDSOBaiZD21g1EycvXeaf3kUrIuapkm/mU6QHM8/3t5uKwrRIzStNIo3XZndXvfZ8HE/t9i5ooSs2ov4CMzStY18R77XcFzL1jqpXV7KXWnQKfIpLkh1h15aXoAdAlFB23585D68aAlYqo8Ao+bjzb7MnSi99QZpTTBCzqsysY9A4+bj9QnDuwVTVf/ADtuAaTBZ+DszdSLe4QdtwjYp4ET6NL0EAfRWvZp4GP8jbT6+ehlahmo/MjCVsb6sBmGxyADqHrZycY92bQuYqG8AvTLgntwATnya4g1PaCyViyKtBYJTFWWw/tytr9AFr/J+SGWbCYmkTYIBk1bomQpHbmH+QOGrdYwDMN4t8eQEM9whT9BOpBTZaf6+wIvjXQgm8GK54scJXwNbGSbUh/9O8RROED/ToKHKvSN/pmvByU7PhXiJ0UvNLJ54xH1H9sJT3wbV+SvUJCrCDvFh6golqpkIitb4vfxEVse138WZC0xMqylRhEP/wH1Gyeb+y7VWzFjqVR9tedDJsUWmI42Iigs2uq0wxCegUaVfZsdi2hNDJZopzvbqkOFfhNL0aO+PLuV0NQnitN4ggZFbHe/+UH8IY+PoeEjpjmI8Lb73P7dQEDdRPD2DA1s2k8TZ0oYfJX8l4u7gYAGa6EjZlvMiycP9OcEVpaJs8ZBcClBE0M40aQXV5X3H/B7ZEiGdFb9/LYHP8m0h6i7biPgwoleOS4bzNFoEJj/8ICqOpaZA5TltEa5Q0tiCymcaJzWdR+sGeAPS/wNZ9ftTwEtJxp5dt+ncQRm3BCl0Um9vYQTkHCiRRzWcyU1oIe6alSVyjiLeQEvQK/ein7/PZKtYoYLwNabAwvtiqDCqUrgBGj3wuGv8vVL7xh3LZUUBBW3Xg/eTKmKCZmSaQodtZKq1TpAg249w+AJrSZpwc6pKmjGoZGBvfRv2yWgAaFfA3u04+O2S7A2nRh7O8Kj246B3sO3kn/WPYAoHygIP42uCOqSceEvzgcrWSgVw6UuIftdRYphV54TS3T3ok+wDix9uPB1zJoGevyMDHWTFw1Ms//u49XAUKpcJmSF0F4/dZE1J/rJNbgn7L/6/SIJX4D++jIPZ/VgJD4i9fncRO1yXYz8fjeL7LusIONHbxTGQvuLg9UplgXZdze+KdtGjk/HPbk9QlkVyiao+jB4awqz3m96g3E7isbb3UJ8g4Wupy8+FA2IpH2EMYr0ZdtHNJz069oL/hxnbh8N81o+nxO1if4nP3XWt1TQMOUmfn/OJ7hQ8Uq1d1/VB0KB85e2Ft96QrP0zmA3iZ9qqzbvMFrJa9VvTPijQ/0O/lnpCejkVHu7te0tGgkW84EqV0k6syfufRG05K20C5gZjtabv+SDLlL5zC+mG/l2nCY0emES4GSnzfGTHSIGqbZgdBuz7myfvhhO3fm/9DozS9Di3gZqeBDX3ApagqEPgaviDvY7l88VhZOl+MCKcUaH2GzvOnJzVcQjVeEx3jVKj+jp2vKl3uxsfhU+FTjpe+K/zy0lGsajV30WjQ7Ti6bX19UY1/KIerO8dpgGFUB5r1JhbcJwsn5lLGQoa3ZHxyKj7pc70BhhvFuW6BL5wjGkIizR/vUyG4FIreboVvolrFPRL3dLt+j9vo2qhdaihdmbusFXkbsqNmzQe2mYnq3BpkJn3GCf08u1pfi+SuFW3qsUrqs/vDZdPXOkbkt2cNXhXE4dbIL1bJ4uR+MwlSzdsN1ZzY5Qg1+L+57B2+4f+tM7+vAv7s2KKYPtI/iXEVFEtOO3PodFrrOjOc0fxDMcXl8TchugeuCVrtzJ/3Mv8dwthf6yDRqerVNd1yiB/jwhP7eGi0+doRjn/53P0KU/V9FRfYCa5IP2Tqs1yJr/JP9PfIesRuh9WPWCaBjiPwBjAUKaIvSL9Y7AW7o315OBARfwFR9i7N8a9cHyxLeQzZw4/ElqeJiu/Rof2eSz0vazjmd9kGZfZiXLu3ozekvLULILIvN1+5h8UASpfsoc8tki+RanL4x0Vcg/MzPJn0q8skg5kJOTvVlv/4VYKKRiiOT+ZlaF37nAr5A2uH48gs2ZfvVdpZTEI3WO8zi4eOcbBukDNg+riXuk1W2DjyrIfFuJhXHNKOE3AcZCptIl90GWAFRjuZS5GZZSM3wPcpLMkEXgrpKvy9dE4FxkFH4kh6RvxbpFEXIcuqLX2HW7HFNwCX1BKFYS1FXJG3AcYjHoV1fBxK/LWMpJcj03Q/DrMuH0cLIRawk+Yasj+cI9rm99Bf5V1dGbmJFWU8HEu7/nvIoXeJZ9XhhDkcJJoFRPwcSLpWAhbTxLbzAAYydSEq8HX/pPlYOgLjRkD7/r2RlhI1IS5VI9zQvh8CxlSrUUTEeewUamhPnQAxoCkZKUd15HwdSUKElRWp/rxZ9BTKtZ8j6vBEjFoPHgYzTGctbsJEpSMTlKj/8V9ULtcfqXriVKcsIavHnBm5wXjOZq4g3XUDLWwAWTtA0QnlsTc1cXCiXoTyppi/B9RYRnWYO1sC0SAAsmTbIseImVOPxK+SZwuFaT0AwdEI7E4edKZiFsQEYpW0wAfANJ2Z4fgqMyAaxg0qZbAXsDPsTRd8qbt7DmhbYABvh5BElZ6MiHC5jSWR49AbBPV2yak1CSc1pBL1kdI+gH0qWdMFH3BmhTIG0yJvAqSWsyUK9Z0ICMhbMkp0duJSs3APZ7WbjxZCk0VrOpQd+90lYIwMolWaNrq+XU/0A/qNl5wHe4JJaS600p/AP9IL6OJy9JrGkoBpsJupaHh1b1v6TxY3XhoLV/VbjDQt7aQ9lyR/gof34v8NaSPP2mptoC3O/VXVBp2EdoyiOr3QklRf/HCMhEo/kcprOBDOX+aSoWFLgKhgyl2m+ooeTo/TpDKDKopSuYq1VYXWm8Euso1apE4SrPPtJRqlVARmn9ONZRqlVARpn99j9DmIMurOFUlQAAAABJRU5ErkJggg==;" parent="1" vertex="1">
          <mxGeometry x="-19.25999999999999" y="-190" width="122.5" height="140" as="geometry" />
        </mxCell>
        <mxCell id="bMk-UlgrDt2UOq0v8GuX-6" value="" style="shape=image;verticalLabelPosition=bottom;labelBackgroundColor=default;verticalAlign=top;aspect=fixed;imageAspect=0;image=https://cdn-icons-png.freepik.com/512/78/78948.png;" parent="1" vertex="1">
          <mxGeometry x="668" y="-192" width="130" height="130" as="geometry" />
        </mxCell>
        <mxCell id="bMk-UlgrDt2UOq0v8GuX-7" value="" style="shape=flexArrow;endArrow=classic;html=1;rounded=0;entryX=0.5;entryY=0;entryDx=0;entryDy=0;exitX=0.5;exitY=1;exitDx=0;exitDy=0;" parent="1" target="bMk-UlgrDt2UOq0v8GuX-2" edge="1" source="bMk-UlgrDt2UOq0v8GuX-14">
          <mxGeometry width="50" height="50" relative="1" as="geometry">
            <mxPoint x="543" y="120" as="sourcePoint" />
            <mxPoint x="520" y="160" as="targetPoint" />
          </mxGeometry>
        </mxCell>
        <mxCell id="bMk-UlgrDt2UOq0v8GuX-8" value="&lt;font style=&quot;font-size: 18px;&quot;&gt;管理员&lt;/font&gt;" style="text;strokeColor=none;fillColor=none;align=left;verticalAlign=middle;spacingLeft=4;spacingRight=4;overflow=hidden;points=[[0,0.5],[1,0.5]];portConstraint=eastwest;rotatable=0;whiteSpace=wrap;html=1;" parent="1" vertex="1">
          <mxGeometry x="690.88" y="-66" width="80" height="30" as="geometry" />
        </mxCell>
        <mxCell id="bMk-UlgrDt2UOq0v8GuX-9" value="&lt;font style=&quot;font-size: 18px;&quot;&gt;用户&lt;/font&gt;" style="text;strokeColor=none;fillColor=none;align=left;verticalAlign=middle;spacingLeft=4;spacingRight=4;overflow=hidden;points=[[0,0.5],[1,0.5]];portConstraint=eastwest;rotatable=0;whiteSpace=wrap;html=1;" parent="1" vertex="1">
          <mxGeometry x="12.980000000000018" y="-90" width="80" height="30" as="geometry" />
        </mxCell>
        <mxCell id="bMk-UlgrDt2UOq0v8GuX-10" value="" style="shape=flexArrow;endArrow=classic;html=1;rounded=0;" parent="1" edge="1">
          <mxGeometry width="50" height="50" relative="1" as="geometry">
            <mxPoint x="250" y="-40" as="sourcePoint" />
            <mxPoint x="250" y="10" as="targetPoint" />
          </mxGeometry>
        </mxCell>
        <mxCell id="bMk-UlgrDt2UOq0v8GuX-11" value="&lt;font style=&quot;font-size: 18px;&quot;&gt;存储知识库信息&lt;/font&gt;" style="text;strokeColor=none;fillColor=none;align=left;verticalAlign=middle;spacingLeft=4;spacingRight=4;overflow=hidden;points=[[0,0.5],[1,0.5]];portConstraint=eastwest;rotatable=0;whiteSpace=wrap;html=1;" parent="1" vertex="1">
          <mxGeometry x="400" y="330" width="220" height="30" as="geometry" />
        </mxCell>
        <mxCell id="bMk-UlgrDt2UOq0v8GuX-12" value="" style="shape=flexArrow;endArrow=classic;html=1;rounded=0;entryX=0;entryY=0.5;entryDx=0;entryDy=0;exitX=0.056;exitY=1.105;exitDx=0;exitDy=0;exitPerimeter=0;" parent="1" target="bMk-UlgrDt2UOq0v8GuX-2" edge="1" source="bMk-UlgrDt2UOq0v8GuX-13">
          <mxGeometry width="50" height="50" relative="1" as="geometry">
            <mxPoint x="360" y="243" as="sourcePoint" />
            <mxPoint x="330" y="330" as="targetPoint" />
          </mxGeometry>
        </mxCell>
        <mxCell id="bMk-UlgrDt2UOq0v8GuX-13" value="&lt;span style=&quot;font-size: 15px;&quot;&gt;调用Node接口&lt;/span&gt;" style="text;html=1;strokeColor=none;fillColor=none;align=center;verticalAlign=middle;whiteSpace=wrap;rounded=0;" parent="1" vertex="1">
          <mxGeometry x="339.74" y="210" width="150.26" height="30" as="geometry" />
        </mxCell>
        <mxCell id="bMk-UlgrDt2UOq0v8GuX-14" value="" style="shape=image;verticalLabelPosition=bottom;labelBackgroundColor=default;verticalAlign=top;aspect=fixed;imageAspect=0;image=https://upload.wikimedia.org/wikipedia/commons/thumb/9/95/Vue.js_Logo_2.svg/1200px-Vue.js_Logo_2.svg.png;" parent="1" vertex="1">
          <mxGeometry x="484.81" y="10" width="115.38" height="100" as="geometry" />
        </mxCell>
        <mxCell id="bMk-UlgrDt2UOq0v8GuX-15" value="" style="shape=flexArrow;endArrow=classic;html=1;rounded=0;entryX=0.212;entryY=-0.015;entryDx=0;entryDy=0;entryPerimeter=0;" parent="1" edge="1">
          <mxGeometry width="50" height="50" relative="1" as="geometry">
            <mxPoint x="543" y="-40" as="sourcePoint" />
            <mxPoint x="543.2705599999999" y="8.5" as="targetPoint" />
          </mxGeometry>
        </mxCell>
        <mxCell id="bMk-UlgrDt2UOq0v8GuX-18" value="&lt;span style=&quot;font-size: 16px;&quot;&gt;反向代理&lt;/span&gt;" style="text;html=1;strokeColor=none;fillColor=none;align=center;verticalAlign=middle;whiteSpace=wrap;rounded=0;" parent="1" vertex="1">
          <mxGeometry x="312.24" y="-44" width="190" height="30" as="geometry" />
        </mxCell>
        <mxCell id="i_ElwK9fDUj6FuIoGpUe-1" value="" style="shape=image;verticalLabelPosition=bottom;labelBackgroundColor=default;verticalAlign=top;aspect=fixed;imageAspect=0;image=https://upload.wikimedia.org/wikipedia/commons/thumb/9/95/Vue.js_Logo_2.svg/1200px-Vue.js_Logo_2.svg.png;" parent="1" vertex="1">
          <mxGeometry x="192.5" y="10" width="115.38" height="100" as="geometry" />
        </mxCell>
        <mxCell id="i_ElwK9fDUj6FuIoGpUe-4" value="" style="shape=image;verticalLabelPosition=bottom;labelBackgroundColor=default;verticalAlign=top;aspect=fixed;imageAspect=0;image=data:image/jpeg,/9j/4AAQSkZJRgABAQAAAQABAAD/2wCEAAkGBxAREhUQEBIVFRAWFxUVFRcVFRcXGBEYFRYWFhYWGBYYHiggGBolGxYVIjEhJSorLi4vGB8/ODMtNygtLisBCgoKDg0OGxAQGy0mICUrLS0tLS0vMC0uLS0tLS8tLS0tLS01Ly0uLSstLS8tLS0tLy01LS0tLS0tLS0tLS0tNf/AABEIAKgBLAMBIgACEQEDEQH/xAAcAAEAAQUBAQAAAAAAAAAAAAAABgIDBAUHAQj/xABKEAABAwIDBQUEBwQHBQkAAAABAAIDBBEFEiEGEzFBUSJhcYGRBzJSoRQjQmJykrEzgrLBF1NzotHS8BYkNOHxFUNEVGOTo7PC/8QAGgEBAQADAQEAAAAAAAAAAAAAAAECAwQFBv/EADcRAAIBAwIDBQYEBQUAAAAAAAABAgMRIQQxEkFRYXGBkaEFIjKxwfATFELRQ4KSwvEVUmJysv/aAAwDAQACEQMRAD8A7iiIgCIiAIiIAiIgCIiAIiIAiIgNBj+1+H0L2x1lQ2J7m5mgtebtuRfsg8wVrP6UcF/88z8kn+Vc79uT4RiuHmpF6cNjMwsTeMTneCw1PZvw1WTBiGxj3NY2C7nENA3dRqSbDmgOzUlSyWNksZzRva17D8TXAFp16ghabA9sMPrZZKelqGyTRgl7Q14sGuyEguaA4XsLi/EdQtV7SMaZheFv3PYfkbTU4B90ublFifhYHO1+ELj2GYbNgE2GYnIXbqoad+LH6sPPaYQOe6cxwB+0w9EB9DY1i9PRxGoqZBHC0gFxBIBcQBo0E8SFbbj1IacVm+YKUjMJXHI2xNgbutxOiiPtwcDg0xBuC6AgjmDKzVQDbOiqZNnMNdE1zoYxmmDQTl0cGPcB9kdoX5ZggOpUHtMwaZ+6ZWx5+HbbJG0+D5Ghp9VvsXximpY99UzMii4ZnusCTqA3m42B0Gui4lhddslXRxwTQOo5RlGYktBIte8zSQQddXgeSzfbtQuY6gmEJfhkIDSyO4Y0ZmdnM33A5gDQe5AdHwf2h4TVvEUFZGZCQA14fEXE8A3etbmPcFKlxDBZdksQlhtD9Fna9pbG8GNspB0Y4gujcCbaEgnzsu3oAiIgCIiAIiIAiIgCIiAIiIAiIgCIiAIiIAiIgCIqS4DiUBUiKlpB1CAqRUtcDwKqQBERAcS9r8DJMbwuN7Q5jnQNc1wuHNdU2LSDxBBIsums2LwtpDm0FKCCCCIIwQRwI0W9LAdSBdVoDh/tIY/GsYhwiCTLFA1xlfbMGOLQ57i24zWG7aNeLim0XsdrTTSOOKS1JiY6RkL432e5jTZrS6ZwaSLgG3Ndss0HkCfUq4gOAVG0X0zZaRjjeamfBC/qWiRm6d+Ww8WlSWi2nq8PwXDpaWjdUsLBviL2jYM2nZu4E/FYtFteIXVt23oPRVaDuCA+b9udq8LxSER0eGyNxBz22e2NgPHtD6ol0pIuLEc78lOKvaSvwWjoIZaB88LYGipfe4jPARAtuGlo+IWPAcyuqsjYO0A2/UAfqqwQe8ID5n21xXD8XdDFhGHSMrHP7ZDGMzgi1i2NxB1sc7rWt3r6Qw+JzIo2POZ7WMa4/EQ0An1V6OJrfdaB4AC6uIAiIgCKnML2vqqkARFS5wHE2QFSIiAIiIAiIgCIiAIiIAiIgIl7RqOslpWsow5xEsbpo2Sbt8sIzZ42v5EnL5A8eBiGH7S09AyWOmjq2Vr3wxMpKx7ixj5C4CRpJvkPM31s3he66Nj+Bx1jAyR8sZa4PY+GQsexwBAcCNDxPEFaJns7pC2UTyz1Esoa0zTS5pYww5mbtwAy2IB5+mi9DT6ijGjwVb73sr5yt82a8nyvk1yi27osYhi2KUsTjVTYex7nsbC7LUEPzB2du7bdznCzbW77qMVO0stXLSNqN0JKfEYWufEHtje17HOa7LJ2mkZTe6lp2AYcr31ta+dj2vjlfMHOiygizWuaW2N9bi56rw+zulLjJJLUSOdNHO8vew53Ma5licgOUh5uBa2lrAWWVOtpoZfxZylbswu7q97+JqRoX7c1JlZHI+lmp53SQg07KhpYcrsrg+TsPHXLdYGzGP4hQ4VT1m7pzh7Dlc279+Wumc0yA+6O0bBtjp46S2D2eQARMNTVPjgfmhY58eRnHSwZrx4nUW0tc3tUvszpGNjiM9U+njcH7h8oMT3gkhzmBo5ngLD1N9n4+kUeC2LpvG6XF24dms2fiY8MyJYJtQ+k31PAYmSTV9a8yTNe5kTIxF9iPtOcSbDkLKb7M47U11JUaMZVMMsTXsDhE92X6uVgf2g03HHp5Lw7AU1i5k1RHPv5alkzHtEkTpg0SMb2bGM5BoQeeq3VBgjY4HUz5p5mvz53yyuMh3l81nttkGugbay59TWoTjeK96+W+9+lrK1+2xnGMk87HMsCmiw+SN+Ix19PVNzl8rpnSQVjg1xyudcgk8Q0cwLnrssI9olS6SnfN9GME7w1zIxLvKVryQx75HdhzRpmOnkt/S+z2ma+N0s9VURRHNFDPLnijNrAhthwHD+au0Ww0MQyCoqjSgPDad0v1TWva5rm2AzObZxsCSuirqNLUbcrt+nPCvdrlu98Jpb4KM1sRqPb+sZIwPdRzRyCUNMDKhuR7I3Oac0lmyMu2xy+o5+0G2+KzR01oKdstYclMXF+UbrMZpZGg3y2y5Wg30JN9Ad6z2eQZYWPqat7YMwia58eWNrmluWwjF9DxOvlosuo2Ip30sFJnmb9HIMMrHhssThfUOAtz6dOl1hKro8Wj42f/K3Tnw3XY0ZJTInjbsUGIYaJBSmsBrRGWmQROaYWjO8HtAgFxyjjYcLqS7K4lNiFPVQVjWNlilmpJHQ5g11mgF7bm7Tqdb8gdOCv0GxkUU0FS+pqppoHSua6aUPzGZgY4EFugAAsG281ssDwGOkM5jc9xnmfUPzkHK6TiG2A7OnO571qr6ilKmox3Sw0rWfFJ+VmvERi0zlVRiFVU0UGDxvd9OZLUxzEF18tI1z23dxAcTGAeZatjJjH/aZgcCHR01BNUVDbuyPmcwx7t+Ug6OaXcb2up5Q7K00NdNiDM2/maGuBIyt93MWi17nI2+v6qzhOx1LTCrbGX/72XmS5bdgcH9lmmjRnda9+K3y1tHeKs91jnPE/BJ+73dpFB8/voc4wGrr3ShkRgZAcM3m6vOWMgz2dla55O/zXs4kiy2eyGO19NDhjHsgNFO4U7QC8zAkus8nRo11tY6DqbiT/ANH1OHROZPUsMUIprskaN9ECXBsnZ1FzqBYGwWazY6nEVJCHyZaORssZu27y29g/s6jXlZWrrKE1a2/Z2S88tBQkQ/2gBrsWijkjqpovogdu6Rzg/NvpbPsHDQDQ+IWRHiJo4Y2URFM6Z8jnRYi2oknOQMa1zGRFxDNHXJ0+amz8AiNa3EC5++bCYA24yZS8vva181z1t3LFxfZhk9RHVtmmhnYwxF0LmjPGXZsjg9ruZJBFuPhbTHVwcYwleyWel88tue5eF3bIpg+3VdXmKmpI6dlWWSSTulz7pjY5DEN20HMS4gHUm1+fEV4ntlXxTNo3mjiqGRb2Z7hO+JznOO7jja3tC7bEk34m3DXaM9nFKxrBDPURTMdIWzMkAltIczmOdl7Tb3Ouup11N78mwsXYfHVVcdQ1hjdO2a8szC4utIXAg2JNrAW06C2bq6PiwsZ5PfNm3m6tsrfLMtMh2FY3WV2IsnpY4o6l9BlkE+fJFkqHh5DW9p1yGWHR2t7LY0G3ldUSDDoYoG4i2SZkz3l5gY2E2L2tBzEk3Fr6Ze/TfVWwULpGTtqqxk0cTYGyNmGfK1xdmc4tJcTmIN9LcALBUf0dUjY42RSTxzxvfIKlklp3OksHlz7WcDYAi36m9lX0kllcsY2ebXd8pYst/q4Z8jTu27rWynDXQwnFN82JrhnFOWOZvBKftaNI7N+fktPt5tBVCKShxAQ76N9NUMkgz5JIi8g3a65DgR5/rM/6PqMxGMvnMxlE5qTJ/vG9AsHiS3IG1rW89Vbf7OqV8b2TS1Essj2Okmke10jhEbsYLtsGdwHnoFlT1GkhNSS2a5ZvdZTvhWv7ufqjjNqxlbFbQy4gJan6ttKHujhYAd92LXdKc1mk8Q0DgRr1hHtAx8vrZHRVTYzh7WPjjL8v0mcyNe9tr9oBjctuunMro+H7OxQVM1VE57TPYyx3G7L/AOsDbXDzrfWxudFawfZOlp2OZkEznvfI987WPfI6Q3cXENA8gFz0q9ClVdRLFlZY/mTv2XV+d74K4yasR6bFBUYrhksTjuZqaeQC5sbsJFx1HBdBUTwbYampZIJWSzH6OJhE17mFrWz3Lmns3IBJtrz5qWLVqZ05cKp7JWyrfqk16NGUU+YREXMZBERAEREAREQBERAEREAREQBeEr1WZ3WCApgna4dk3ALmnuLXFrh5EFZChNFiu6rpqd57MhErPxOa3MPOxP7vephTyXCG+vQdKSXJxUl3NX9Nn2pl5ERDQF5dCtXUVW7njafclBaO6RozAfvMz/kCFSv9/fI2qKhjrqtCBERAFafKBa/M2Hef+gJ8iqJ5wOJ0/RaXBKo1Uj6n/uQTHB94A9uX95wyjoGn4ihnGN05cl9dl458E3yJEi8C9QwCIiAIiIAiIgCIiAIiIAiIgCIiAIiIAiIgC8usaSsY37V/C7j6NusKfFQNGw1Dj92F4+b8o+aN2NkKNSfwp/Tz2NrnCoMwUeqcWqj+yo3n+0kjZ/MrAkqMUfwihZ4uJPydZS5vjo5vLlBd84fJNsljqkLX4hiAa0kmwGpPRRWXDcVk41DGjo0uH6R/zWHNshVv/aVObze4ehIS5vjoaH8TUQX/AFUpfREexrFzLUb5nZyWDTz7BJBPmfSy6NsvjTZ4weDho9vR3Py6KLf7But+0N/w/wDNWYsJraF+8iAkZbtBocdO9vHlxF0PY1n+n6yjGjQqJSgrRveN1/tvJJZ5Z37GzqzH3Vai2z+0kVR2Qcso4xu46ccvxD59QFI2TBU+ZrUalGbhUi01yZeUa2zieaZ749JIi2eM9HRHMfVuYeakW8C12JOBBB4HQ94KNXJTqOnNTXLJRgWKMnhjlb7r2g2+E82+RuPJbYFcc2T2gFFI+lmNog85XanIeGv3TbjyPjp0umxZjmB7HBzTqC0gg+YQ6NbpXpqjX6f0vquWevKxuCViVNUAFHcW2vgh0zZ5Dwjj7TyfAcPNQ/aPE6+aF8jyKeIcGBxEj7m1nH+WngpcUdHOpZu0U3ZN8+5bvwx1aWS7t7tYX3pYDqTaVw/+sd55+nW0/wABjayJkbRZrWtaAO4WXGcO2dmmZvQQ0HVt3G5se7l3qV4HtqIgYqw5ZGGxcGkh1uuW9nfI/JEehq9LH8KNLTPicG+JL4m3ZXtzWLYvbbqdUuF4XhQZvtAouc3/AMcn+RWnbfwuOSCOaV3RrR+pOb5K3POWh1L/AIcvFNerwTwyhUmYKFQYpik5+rpY4W8nTvcf7oAcPRZsGD1sms9Y8DpTtEYHdnILj8lLklp+D45xXc+L/wA3Xm0SZ9QALkgDqTYeqxBjUBNmSCQg2IiDpbHod2DbzWHT7NUzSHOZvXDXNOTKb9frCbeS3McYAsBYDkOAVyan+GtrvyX7/TuLcc73cIyPxlov5NJPrZZIQBeoawiIgCIiAIiIAiIgCIiAIipLgOJQAhUlirKpzoQo3KbgKrOm8CFPNyF7ugvd4E3gQHm6CtSUoKvbwLzfBAR3FdmYJu0Wlr+IfGcrweRvz81oq/Fquhs2X6+LgJNQ8dzjwJt69VOZahqiG2bmOgfmNtLj8Q1aPPUeaHoaPUcVSnQrLig2lZ8ru3utWa7k7dmxhw7cB/uwyO8LH9FrcY2wlcCxkZY48S+9236C2h7yq9iqxmUxE2fcu/ECANOtlIMawaOeMjQPt2XW1B/mOoUPQn+R0msdOrQfCnu5N45S4dmuy/m8GBgeAU7oWmSNj3OaHOc9oJObW1zrYLRbYYW2kjDoC5jCSCy5IubkcT4rZYJjn0fNT1JyuZo0m9iOn+B5ghaDbTaGOpayOIOLcxeXEWuRdoAvrbU8e5Ddpoa+nr3L3nFtttXcXF3aa5dLWynjBr6KjqaUipytItcg20zcbdPJYuIYlPWPa219ezG0X1P6n/WikGz+BGRjJKhxe2142XJAHIm5+Xr0Wvw7EoKeskdb6rtMBaNG9oG46i7SNOqhsp11OrOSip1YJ5SaW9uHLd3lu6ti6VzcUtBiboxGBFE0NDR8QAFtMuaxURrcKnjlET2HeOtYA3zXNgQedzddOj2ooyy4mZYDgbg/lIuVp8AfHXV7qgfs4Wtay4sSTcA2/wDc9Qqcml1Val+JOdNRild+61717RV3nd874vsUbNbAg2fVa9GNOg/EefgPUrotDhbI2hrGNa3o0AD0Cy6SEALKVPI1Gqq6h3qO/ZyXcv8AJYZAAroYFUiHOeWXqIgCIiAIiIAiIgCIiAIiIAiIgCpcAeKqRAYj6GI/YaO8DKfUWKxJMKGpbJO0npPI70bIXAei2yIZKclszQS4XUj9nWS+EkcLx8mNPzWK+LE28JKWT8cckZ9WuI+SlFlSYwpYzVZ9F/Svmkn6kSlxHEWe9Ssd/Zy2/i1Vl+007ffo5m/huR62UwMIVp9KEN0dRS/VRi+5zX9zXoQZ+3jOG6fccfd0+awJNuZHHLFELnQZiSSfwt/xU2r8Eik9+NjvxNBI8DxChmNbISxO31G6zm6hjv8A8utceB07wh6Wlq+ypu06bi+XFKTjfldqzS63RadV4rLwGQeAb/EcypdsxWS6zTA+Lnu+R0Vmh2qlhdu6uEscNCW2B82uPzBW0btzSAfb/uf51DplL2jRdqFCMejhBO/i73v2owP9jpIyHxzZXN1bxFiO8Xsr0uP1NMQypY0g8HtsCbcdOB/urOhxqqqf+GpsrDwfNo3xbl4+V1Yr9nZJRmqJS54vYMADW342uLngqa5alyaXtJwaV8WvNd34eF1ak79l7EfqsQZU1MZPZYMrTmsLgOJOax4a2WVtLVUv0d0TDHm0yCPLoQb8BwHVWNmcPhlfJmIfkOXQ6HiM2nEaaLJ2qwimbCXxxjekgN1PG9zoTY6BDdqXpfzdHT0+P3OFJKzV78V7t323du40mGYvNK1lKHhgtlLx7xba9g7kbaaJSy01PVPD23itYXAfZ3Zv+jgtvTbEs3TS972ykAm2WzSRwsRyUSnw94c8WvlJ194DKTrccLqG3Tx0+qnOFGTUbWaStly+Li59F2PG7RuqjD3Vz81LBkY24JNmB5uOQFr/AOOtlkYAZcNqG/SGZY5RlLgbgWOhuOl9R0Pcpjs5VROhYWANAGXL8BHEf64rQba4rFKz6PGc7y9ty1he0WvoCOJvpp3qnFQ1FWvVejdP3Nmm3xRXWUns085VuS5HS6KrBA1WcJAuQbPPxOCwayR7BoGSMIAHQE2y+F7dyl0e0M7R9bR1HfuwJP4UuefW9nVKbtGcJd0438U3v595M8wS6hj9uqZn7Vs8f9pCR+hWTBtpQv4TtH4sw/iAS5olotRFXdOVutrrzWCVXTMFFptsKRv/AIiM+Dr/AKLXz7f0Y4S38GuKpjHS15fDTk/5WTcyBeb0Lng273rt3TQySu8NPE2vYeNlvaKCum7U0jYW/BCLvt0Mj7geSlzdLQ1KavWah3u7/pjeXmkScPVawaSibH1Lvie5znn95xJt3cFnKnG7Xx+37hERCBERAEREAREQBERAEREAREQBEVJcgPSsGttZXKioAC5jtntrcmClNzwdIDoPuscOJ+96dQOjTaapqKnBTWfRd/3d8kYW1tB9LrGxwEF4YBIf6vK4nU+fBSTZzY6Cns5zQ+Tq4aNP3W8PPUqO7IYxHDEQKaZ8hN3OYzNnPjpYDpqt5JjmJPH1FA5o5GY2P5SW29ViepqIamMfy0HwwirXcox4s7vOz5JcviuyVVFSyNpc9wDQLkk2AA5kngodVYy/EJHU1H2IrHezEfZPZs0cr8LnXj0Ud2ip8Wkuahh3Y1yx2LRbnlYTe3fdbr2fYhEyEx3DZQ4ucOBINrG/MAWHcqalo46fTuumpyTsuHMY87vra3PF+quWKvYd0Qz087g8D7el/As1b81H6apmc5hcXyFhB1JcdCCeN1MNqtq2MbuoCHTP0uLERjqbcT0Hr37bZLZ4RR5nD6x93vPMZvs+X63Sx3ab2hV09B1tSuJvEL2TeHxZtfhyu3p1NJV7TtEZAZI2QghocAAD8V76gLI2YoWGnzGzjJcuvr93Kb9LfqpXiWBRysyPbmb8weoPIqJHNhxMb2udTlxLHji0ke67lwb/AK4AccXRr6WVDTRcZuSbje/ElfEW7ZW6jvva720MmDufVvgiJDQ65PJjTbj4Xt6LoGBbNxQi7W3fze7Vx8+Q7gorsnWCWslksRnY4gHj78dr+QXTqUaIjb7a1epvDTzk7KEbrq2st9c8vEtR0QCr+jBZKKngmI6nWBVYDTv9+CI+MbT8yFukQL3XdHP8V9n9K+5YHRu+6bt/K659LKGYvsPUxAuYN6B8IOcfuc/K57l3EsCsyU4PJSx6FH2pqaX6uJdJZ9d/U517N3RCIxgjfhxc9h0cDoBoeIAAHcuiwNFlqMR2chmIeWlsrfcljOWRh5HMOPgbhZFDv4+xMRI0cJGixP8AaM5H7zdDro1EaNROFacqsd27tP6PmvXlnc26IipzBERAEREAREQBERAEREARF4SgPVSXLFqa5jNHO7XJoBc8+DG3J9FgySVUmkbGxD4pe2/yiYbcOZfcfChmoN527/u78E2bKacNBc4gNGpJNgPElaGfaQPu2ljkqDwvHpE098x7P5brIbgEbiHzl87hqN8QWjn2YmgRjxy371tmQACwFgOAHJTJmnSjy4vRemWvGLIfVYDWVn/FzCOL+qpydfxvdx8LWWfhuyNLDbJC3MPtO7TvzO19FJhGFUAliy1NSUeC9o9FheKW77XcwY6EBXhShZKKnPZIwZaIFc9242SjLHzwttIO04NFhIB73Z+LidOK6gsDEIQQhv0+oqUKiqU3n59j7GcK2Rpt5VxNdqAcx6dnUfOy7vh7NFyvDKEU+IlgFml7/wAr2ksA7gDbyXWKPgoj1PbkuKrTktnTUl4uXra1+4yCFrMUw5srSx7Q5pFiDzW0XhF1TxVjKOWR4ecOq2uN9w+7Mx+zmPBx6iwN+Yv0K6VRv0WFjOFx1Ebo3i4I82nk8d4K1uzFQ9mallP10Vrf+pFwa8E8eh8lD0tTWespqs/jgrS7Y8pd6btLvi+pKUVLSqlTzQiIgCIiA8sll6iAIiIAiIgCIiAIiIAiIgCIiApcTbQXPorL4XO95xA6N0/vcfSyyEQFiGnYzRjQL6mw4956lXQ1VIgPLL1EQBERAEREAVqdtwrq8IQHPNoqXJXU0vJ7mNPiH/4P+SnVHwWh2vpfqmyW1ikjl8g6x/iB8lIKdtlEd2oqfiaei+ilHyd16SRkIiKnCUubdabFaFzi2aL9tGSRy3jftRO7ncuhsVu1S5qGdOo6clJf56p9jWH2GLRVLZGNe33XC4voR1BHIg3BHIhZiwo4sjiW+683I+F/N3gefeL8yVmoSVr+7t9792wREQxCIiAIiIAiIgCIiAIiIAiIgCIiAIiIAiIgCIiAIiIAiIgCIiAIiIDFrqbeRvj+Nj2H94EfzVynBygnjYX9ERCuT4eHlf5rPyLyIiECIiAIiIAiIgCIiAIiIAiIgCIiAIiID//Z;" parent="1" vertex="1">
          <mxGeometry x="790" y="410" width="210.71" height="118" as="geometry" />
        </mxCell>
        <mxCell id="i_ElwK9fDUj6FuIoGpUe-6" value="" style="shape=flexArrow;endArrow=classic;html=1;rounded=0;entryX=0.5;entryY=0;entryDx=0;entryDy=0;exitX=0.981;exitY=0.978;exitDx=0;exitDy=0;exitPerimeter=0;" parent="1" source="bMk-UlgrDt2UOq0v8GuX-2" target="i_ElwK9fDUj6FuIoGpUe-4" edge="1">
          <mxGeometry width="50" height="50" relative="1" as="geometry">
            <mxPoint x="610" y="300" as="sourcePoint" />
            <mxPoint x="730" y="390" as="targetPoint" />
          </mxGeometry>
        </mxCell>
        <mxCell id="i_ElwK9fDUj6FuIoGpUe-7" value="&lt;font style=&quot;font-size: 18px;&quot;&gt;文本分割和最近邻搜索&lt;/font&gt;" style="text;strokeColor=none;fillColor=none;align=left;verticalAlign=middle;spacingLeft=4;spacingRight=4;overflow=hidden;points=[[0,0.5],[1,0.5]];portConstraint=eastwest;rotatable=0;whiteSpace=wrap;html=1;" parent="1" vertex="1">
          <mxGeometry x="740" y="310" width="220" height="35" as="geometry" />
        </mxCell>
        <mxCell id="i_ElwK9fDUj6FuIoGpUe-10" value="" style="shape=image;verticalLabelPosition=bottom;labelBackgroundColor=default;verticalAlign=top;aspect=fixed;imageAspect=0;image=data:image/png,iVBORw0KGgoAAAANSUhEUgAAAXsAAACFCAMAAACND6jkAAAB41BMVEX///8AAAAPDw8LCwvz8/MICAjGxsaEhITY2Nj8/PzOzs4yMjL39/exsbHn5+dbW1u/v78TExMeHh56eXibm5tFRUU+Pj5TU1Pu7u7m5ua5ubmqqanZ2dm45D/g4OCWlpaHiIdpaWl+fn4lJSWjo6Ox3T+o0EEbGxtchS2YmJhJSUk0NDQ8ODphYWFvb2+IrTePuSxJbyc4LzJDZyV6nL747Vru+P/s3VRhSUu0xz51nDEsVQBymTBWfiupxjt2YWI8XyLGmBEgQgDs6tOhr7x4jqVlgqDc3MTSu23awj/k0EHYxGXf1a2Jq8yiwt+x0u2XqbrSj2vHQBPKXjPDsT3y8uhnjbHM5PG0w83kzrrOaTppXiJLRDOlijTRzUSirjxQOzuMTi2XeS1GNw7UsUmTsFZIUVqwnUskIRgAABiotJbb6vaEmmZoWTvIoEJdQkVhZlW9ozm9wDq7yaFRaz9/dWp3h2msxHJPLjRfcoRoflSUuUNUcY6ToI221F6LrjqjvifK1Jh6iJd+jSeDjSamoiW/siRjbB2EgB6hmR/IqxuThBqwhhOrfRDFkAC/pmeoaABCThZnWxO6kUt+VgufVwpvTQqzVRS+hE0qQB2rKgCtIQAxQimYRAiDkXoAOgB7llgs0IeQAAAUH0lEQVR4nO1di3/b1nUGSPABECAoggTBR0HwYUsCRch6RJZtKVIcSamz6tHWs9VmTjQ367p6i7ouDyeO5yZdmrSpPaezmyVp0/2pO+deAAQp6kGIpGgH388/mwDBy8sPB98599xzrxkmQIAAAQIECBAgQIAAAQIECBAgQIAAAQIECBAgQIAAAQIECBAgQIAAAQIECBAgQIAAzy60UqmUFM+6F99BlGINFpGuRM+6K98xJGWgPRwCRFg2EbA/REgsGwqzFJEQyypn3aGhg0vqGtc65If2xWUweZa1UqVkKRpL44HMJeOlPHf8R88W3Msvv9yHTupr6xuI9bXk6RvrDXU0esX5DXx9DMgnT8FYrjjKrveV71979eILr/7dD07XydL6jc2tbcDW5vzGznDtrcSGw2zBc6LKhkJE+/EGlIfal17wwx/9+NrFFwCvXv97/63wOze27yzc3N2JVWM7O1ubN0r96+HxyLIh1uNdU+NAva39+EAkhv4cngw/+dGPf/raP9y6dvHixdff8E1+cn1rgSkZi7OzU1Oze3srO1vzQj97eTSiQL3hHpVM4myzGUHXhboJ7LNsfHid6QHGP/70Nqv+7E0k/9I/+XSOpRs3Ga6+P5vNyXIuq6pTe9bavN7fjh4OTgZtd3rOKcTUVffWCw0gPzyKlm80fv7P13/xL7dQdC5emv6lr0aE+TuMvjKbbWYEjdMEY2pKnV1Z2xmOk5NyrMfs6ywJeIreKyx4Xx1KX3pCUTV/fv2Fi68T6oH7pbyPRnbnFxhhcTZX1uwTek4F8oupfvb0EAg1YB7EnZp5tEaYNzoe3yaQX+zy4TOFaJrN5i3iai9eu/b6i9NL/9p7IwJQn1psND1xhgbCc1epDz68BzOHYSxoDN52kTwBrHzAfvh0JDI+8L70iHzClOV/e+vNN69dB+ovXbh8eemVXtsoAfXS3SmrLbApZU11PzNwD0dGVIkKGx7DmNYgMY0T7whmw7WGQnscNBLIJ4Cj5q1bb731JlJ/Yfry0kSPxsoB9YW9KaXDsyo5de+dQveP9A0Skl0GZin3CrjcjNOtCsaXWfvu87XIyCUZkokGWP6vbr3179d/DdQT8ntUnZ07TAqo74wjonJ2b/F+3zraFRqOqFJ4CxzuWSe6KYPLJZGmRX2QxY6ct+VVI1drTK1OXL48PX2Bkn/5P3ppYXcL3WzlQDyZh1jzrjHYSAfjF4npwj2MrWA8a1DHm8EHuQiXjFpuwRB4oSi9Pbc8cZlyD+xP90A+v7mgK7PyQWHXZNm8+85AMwtg9mwFX3RwX8qxEWLwfJmE+jV4NFJw7ail1TTySMavzEwsXb5w4fw5wPnzFz46seYL2/nyntolftOa8uLddwZqahkwe/K8tXFPxlasSa0h2SRxUC45itzbeHduGbg//z2Kc+feO2k/d3RpZdbqcqviSmXl7mDdm8myOfLCw30Ux1ZAtzusjatE9tVIpDZqmmMDDR+4P+eSf+HlE30umUnF7nYze2ataKzcHWgCUUxH2EnyqsU9+F4Q+hyGOG6UL4H4h4D/3CA7cwpwq8D99HmX/O+dO398nM8L6xtlYFh+f2NN63hPnBcy+7MDHdhyNMhhvNxjyriSZKIJ4mttQxcNHPq60efI4YM5EPx7QP45x/LPHUe+sL55c9eqLO5VPlx//8O1dt1Z280be+pgXW0kbI+XPNyzCSI2PJUeyb40b4IMJUZUc5j7V0DwH9x78TxxtxRHyo64s3mHyZdleXHfsgrxtQ/XvT8tPs8JK7PGQLvMhQ7afWuaRES62YYj+xiOVgbaHf+IouAvPbiH7FP+z587f0Q2X5/fZrR6LpvLLe5XVEUQtzfWW1au3dD58t2sn7zcyYFjVUo1co+PnWdsxTAxYBtCzaY96JPZEDvEGYVeULoCkc7E5QcO+wT/eehTGp+/w8Qts2lmzb19azxrCfzNjXXnXe3GLpPaTww6cwgu1SQvJOAV70Ib91U6uIJHgaghBy9H1Ntqq8j90vQ0sP+ii/cOuTo+v8BEF5vNSkHNZvetYjUX05mtjV27rfVdprQyWxl0FrPuxPdJFPdaFOlu4z5OUwtZclyGqzsjghHBBxDpLM0sLU0j95cuXSLc/+ajrtcKmzwj7VkyGHYTc8UKk2oWxYVNqjpJuAf6ymxu4D8UTVkmr7QKC/oiyx3cCzjEg4uI7OTtBMQI4j6IzsQM8P/gjTcu/ZoA7sBvugU7caC+uKc0MWksqereiiIxqY/zzPY8ur44pd4cwlx5Feis05dCFsU91Kb35EBgw7a5g3uIDb5PfhC9sjqzPDE3M/HbN94gzP+O3oCD/lbfXGDqi1aF/CIxZ07txyoSsyMwC5sfM/zaBhEc82i/xgFOcu5oiCyEmY4tS2OYOTOc95JZyn3U5R6eihGNdLSrq0D88urMp//1+08++eR3Dr7feSFP8vXvWzZPUjM7u1i2YtIaz2+t725s6GT68GjqeRx4dhhhAc/1+LBEcTBVtf2KiJkzlH38grLzELS4V9hRdbbMu0D+xMTM6qeffvZ7wB8c/KDjurWbTHzRpR5+kpWdXckYaoZntnc+3LzDFfcaueNKFDJIdNtEkoZnerbLWgTrcBzTB3EH5YEvl0JsONzJ/ejaPVO6ugrudmJu9dPPPv8cuH/pD+TPSy+1q46+xXCKLTgEYrNizq6UY2WR2V6r56Mrs6p1vJvFlEtI7Dgx1mufkyRT4ykIEVSMKhOo/bVwB/ejq/fgbSn5YPmfAft//OMj4P2lhy89+u+2q3ZAcZqyVxs4y5RNWf54AbhXrL2pbPkEwWWnmRfxuOexjwCaQ/OUljNvJoXgdkRYtRTr0PsRjnMAHxDJB/K/+NPtzz9/+Ojho0ePHj58+Ngb6yS3mIVqpWPUVJxqmOrHDLMtZRuqdbIJ8hSS7eba8nhk9NxjnAIXcZIq5GYT6ulwmKhQtYP7EY7vAeK7LfKf3L4NrAP7jx8//h/PNbt3mJvVSud4l5Nyv9iBGGfSNE5suwrS7TSksr7mU3FAC01Mkump8QLc0TRJYOKD18G9OLrjWgL+XUd2rr725MmT2w8fP334+PHTpx7DX1tgdo1uyYLiTeaO0dM81XhLdYjr9VG1h3WYmDTSLDo9JZMMDk0jdWhObnTzOTaI5i8j+V/8+c9PniDx8Oep6275NYbfMrpEglgpstvsaa4k7qqOjq/8aLHult3A2AqFJ2znkBk3uWNzj+nlpo9vGCaQfBzgroLpA/lPv3z6JeB/nbe5NWZhq9xFNte2maSy15thTeLqHIxVUXH8EQPEOrGLhPGlM8zFLEMrxuSSJhyNj+h8rYvC1a+A/IllJP8LEJ4vCb524nWtjtwf/BHCJgjH3V7DZ5NyXsZ74G9iw/JMgYsGW7Vf8wbxAOj1QZZCFVIqOLSyaL8Qrlz96qvVZUo+sv/l14Bvfmi/LZaB+48P2D2WBUb3p3rVUxJopnRf4SVFHEg9OCFfiNDCHHwt4XQheuLBTib0A6Urq6tf/WWGkA/ys/rFa38l5P/Eft/gmK31TqJ0zOYvzvY+M455hHHVV3hpA6dEOioP41lvQRpZ/MOyyqhOGHqgAferH/ySck/xs6+/+eabL213W44zN+d32j+j0+r7pg89teiynITv/iaxNMEbd9khjzvSrZH1niOvNwj+7dXVK/fFueWZmbmSHr3/7a+++NvVPwH7tyj5KRSdjbbhk73wwfTzUPM11md46aCAguJMDDqVaK2gKTqKlfeHoXD16irH3L8yM7fK0dyA/u2Vpdt/fXyPkC/mBDD8jZbi87ubC0z82KTxYcj4SqF5USQKk6vH9VJBYTuXPtQikdppWh8quMbbEDHnV+eufMs7ydm35y5PP7h3jwyximBj2zdcy9fXt3gmujjlk/o81ZxT1fGk2NaiwjAYfcXzAFaeEbPXBQ3Ilho6D35J/8vbnGs9+t/mcCr3Hgo6b1bzYPkfru8mueTuzvxNhpf21WPy9YeiYXN2qtAbJR7X/RC0ZaaV0Vxo1Ym4oiaysiU3VFlWGE5SZ3VGc9gXri4vL927R+qT9Volzixsb97Y2Lixub3A6Iaqyj59WQyXJyBzp8y0JMtZdyOFhku+oGJYP7r5MxdSIZttJLJKRlZN1TQb2VrYTOSc8E27/3/LS9MX3sNITahlJ4FrfmGBZ3g9k2tkFZ9mKyBdeX6MZftQsJcs6UwyhGwnJoV8Pl7PkhHVUJdY+0YxVZVEJhqrqkrBkqdiBSlXjLu6wydf0V/5iPjbUjaRq0rRuBCtKzlVNYs+i0HENF1vH/UxW3gINJU4W3dB+dToj6g84PBPvWYeFfaJ5UQtoQIaiUSj6jt2bjqJY0wn9ysaqTvajxspTPap0WFC049RSU6ypmq1mmoV/YfmEtomuXFEdaq+G2qHWJSp2Y/2BiK9w6MuPKedKjoh4aVTXXPqQLMdyXh8FNfwjwwwjZN1Dsgk1jMQkTwfKJMYxzni0e3KZ9mf7xAEj+Ig4h3HAQYGEaMQ03vGcD1vgMGicjB7mThVLjnASSF1mRwnqtOvQDPAoVDStZrReVJK1GrZ4W3qGCDAyEMwco1EI1fuy4Y8yXqxWGy1pOOhi+DBa4dA0vwR/Ksfy1nI0KKV1pdYL56vPMSpUXd3OsYc5en3Q0pEcI7FjbIk2rI99xVw7wWpsGEVKSpZ5Cacdu8tLByPeJb4C5aiVBNwW5sKvAg0xwMNrd1etJhssKFI+pSmqbDhsUakYyyBOwmO5v6lPiBOZvrz+JaB7ppjjdpYpH3ym+/IpYpastNyea09SRcJs5V6J9XDWHauG2XD//0VJStnNiftoX+xXD48A5PrV24sHfGuF8H9ijAXUZflnM4YWEeuup3gyjg4Zhtkly5GbOLMc4rM5FZbtyiFlWzJtk18meFwH/VZbU1QdIIBi5h07oj1CiJc1ZcNyjSU+BZzeRRrjs6yp2oQ/KD7bdAvirrByjhaB4dhEdkmFj21mzKtkPUSKtt6mBCjzn2sFYmRX5vzJOAPIMP2pzAGPWOodSii+utkp4owUD+eIMU5JCsXxyoFs57B6gTcVoQbC4drNHiBS7JuA+TycseGmSPOfZ2ExUYGp1lJKdmR3DO9LlQ+BFHc+aZ1yGN9JeUeaI2KjIbFriTwbNg7WpAdRBTCPRi8FU+mGniJLZQSrZbCAmbL8zVnwj0vFFJ2t3S9BEFvqRB1tSJfSHGMWNJLHFURGpiVQrSugHIP12jexkpOYzo85vhZnhGjBd9DosO5D9veEgugcoRN58J0JBwRCfe0QJw8LLZXyNn7K9TA5Xo08Qy45+xCYCIPaSycJsWptJo7SdxURqdzqSj2dqk7rhE06B4qHK5fYBW6TQrJDLMR0hiIQYN+nYbrS9iEz9z84dw7ZZzoAoDGSThjr0GxSBRDuHfWXjmuFZ1s1jnlGaYNn3ux5gg4sg10VVR6iJdoafstyn2zNccnGgaud0Pu7ZoA/GFcw9uYSh6KqP159H/+PO8R3NuWLGIkpJGNLQxRA4jIfYrove2lM+59wVfk4RXYtt3rhs89es9qqoh3IElnL1izicN3rJbB+euIUsUwDrlPH1j3TbbjUyvk/mm0MSVVTNPGWtyzkabJsn7dzBHcFz2nCPetqqgu3BvkFTpimk1AHWoF/sPnvmyZ2KUUZRe5B1viaoRLou86DdXgXdx+osOz5myDl+nHjVZjBS/3NY0Klr9Kb4xz2NYhke78cdyTDnXjvoThEclXSmbryWHOLs7BDTiQroQ9aYcBTZxcGaMdx1+Ct6KjYhW55zrbJI1JXu4JRTW/9a4cUtqyTyQPxw1duWflesZGWe/KfYyuAHIejtbw5Ay41yQlSzWfck8sGxN7AjFV4ozi1KzDB6ZTgXsyPinZbXKSYtYcd9HinoTRDd+1xmqbfRrIMEO5t9d3cSzh2HPGPt+F+/GISz3rCTzPgnuh9Ywe4L7u0GbHOeiFHXfJM7guwuE+TtuMth75g9wnfHNfd/5XB9qXMA1PkOkGPZeiCZ+iZ/UyobQL9yhgNcOG6b1ZQ+eeSLkixYVu3BecK6O2nLPuSBUNvdnJPdmPSCmSxvrJPY8J3xoN5aMhh3IytiKSqIEtY/CbtEe8DHYVt4Ttwr3SikM7vPgw8pht3KdsZqLduEeCyVjdotyTZbB5u6PkTDv33sb6yT0YKy6oahiTsQR5RfpAx7VqXYqxKCPIORAbCRU0rdSkY9aD3PP4IZdhMUS3NyqkE4nGeBhuBJZVDzB/j2TUtSQBIRl7bXXjnkEJMTguQ6MGyvhYXc+nMK5pHNCcgqexvnKPjdCieiLWlDvUHBLj4u5F1B/wJhuO0FMs1jsc5L7QHjNVaO5BYiORCM5bwT/t+yn1Ga1cHztOSFOlgtxV7+kGZoCazT1Xa32WMNDOfYk0JjX7rfcM3YLRhpMMRu4lO68atsenvJvsI7NPRFHp5TiyrtLAzLMKnWzhIw5vvtbDfc0eHYF2t3NfpNzTOWU2bOs9WdThgLgl+HTa42s9jfWZe/jqgqFUFCPlMkNjTK4Yg5MtmeAKRrVqFKhn5uMA+l4SXoFU4QnPPAovAERGi3txik4eB4FN2xifYujYNVxOhtLIbnZ8jPAjsWn6ZJdicnOS11m3Nl4iA9SEvSlXc2y8QWPMNLLNV1EWyhwcwY00SWNROCDcq+NjfS0z9sT3zw74FvCQy+dFctJ+y7nG84k461mXANdr3rba/u3SWPcmT49nkvuTw8rVSBqgwo5ggfDzzj06T4OsXB299cHoVp9j7sWs41kTo7caJ5OTzUH/r3FniqIK8XI4+xzb1ygDvOeo7zIWIECAAAECBAgQIECAAAECBAgQIECAZwf/D1J0UeJjZdMWAAAAAElFTkSuQmCC;" parent="1" vertex="1">
          <mxGeometry x="880" y="187.5" width="313.46" height="110" as="geometry" />
        </mxCell>
        <mxCell id="i_ElwK9fDUj6FuIoGpUe-11" value="" style="shape=flexArrow;endArrow=classic;html=1;rounded=0;entryX=0;entryY=0.5;entryDx=0;entryDy=0;exitX=1;exitY=0.5;exitDx=0;exitDy=0;" parent="1" source="bMk-UlgrDt2UOq0v8GuX-2" target="i_ElwK9fDUj6FuIoGpUe-10" edge="1">
          <mxGeometry width="50" height="50" relative="1" as="geometry">
            <mxPoint x="620" y="230" as="sourcePoint" />
            <mxPoint x="670" y="180" as="targetPoint" />
          </mxGeometry>
        </mxCell>
        <mxCell id="i_ElwK9fDUj6FuIoGpUe-12" value="&lt;font style=&quot;font-size: 18px;&quot;&gt;通过LangChain框架访问OpenAi&lt;/font&gt;" style="text;strokeColor=none;fillColor=none;align=left;verticalAlign=middle;spacingLeft=4;spacingRight=4;overflow=hidden;points=[[0,0.5],[1,0.5]];portConstraint=eastwest;rotatable=0;whiteSpace=wrap;html=1;" parent="1" vertex="1">
          <mxGeometry x="640" y="180" width="220" height="60" as="geometry" />
        </mxCell>
        <mxCell id="i_ElwK9fDUj6FuIoGpUe-13" value="" style="shape=flexArrow;endArrow=classic;html=1;rounded=0;exitX=0.5;exitY=1;exitDx=0;exitDy=0;" parent="1" source="i_ElwK9fDUj6FuIoGpUe-1" edge="1">
          <mxGeometry width="50" height="50" relative="1" as="geometry">
            <mxPoint x="-10" y="260" as="sourcePoint" />
            <mxPoint x="250" y="200" as="targetPoint" />
          </mxGeometry>
        </mxCell>
        <mxCell id="i_ElwK9fDUj6FuIoGpUe-14" value="&lt;span style=&quot;font-size: 16px;&quot;&gt;访问所有面向用户的接口&lt;/span&gt;" style="text;html=1;strokeColor=none;fillColor=none;align=center;verticalAlign=middle;whiteSpace=wrap;rounded=0;" parent="1" vertex="1">
          <mxGeometry x="250" y="140" width="190" height="30" as="geometry" />
        </mxCell>
        <mxCell id="i_ElwK9fDUj6FuIoGpUe-15" value="&lt;span style=&quot;font-size: 16px;&quot;&gt;访问管理员后端接口&lt;/span&gt;" style="text;html=1;strokeColor=none;fillColor=none;align=center;verticalAlign=middle;whiteSpace=wrap;rounded=0;" parent="1" vertex="1">
          <mxGeometry x="530" y="140" width="190" height="30" as="geometry" />
        </mxCell>
        <mxCell id="i_ElwK9fDUj6FuIoGpUe-16" value="" style="shape=image;verticalLabelPosition=bottom;labelBackgroundColor=default;verticalAlign=top;aspect=fixed;imageAspect=0;image=data:image/png,iVBORw0KGgoAAAANSUhEUgAAAOEAAADhCAMAAAAJbSJIAAAAw1BMVEX///8AYIzmjwAAXosAW4kAUYMAWIfljADliQDkhgAAVoYAU4QAXIn88+ftsmoAT4KgucqFp73zz6znlBRVhaVokKwocJe2yNXqo0vpnTXw9viuwdD22rrzy5/9+PHsr2vsrWLh7PFej6w5eZ3s9PfP3+f66tjvunx4obm/1N/g6/CPscXV4+rjfgBumrRGgKIVaJGmxdSOrMH44Mjwv4nzzaMAQXoycpj6693rplBelbFWi6nutnbomCh7nrfwvojpnz966IVxAAAQWUlEQVR4nO1deV/iPBBubVogxS24ClqFlVMuOUSXVXTX7/+p3iaZ9CLlTNvo733+2oVQ8zTJzGRmMtG0//E/vg9GveGwN3Hz7kZa6I5r2LFt09RXg+F3ZLnAlqEzGJaN14vvRrLq6BGUbTRo5d0pmaiY+gYss93Lu1/S0BIQ9IDM2STvrklCG7H1Z5rBamST1Wx/i7naNRnBQa+3qNaiJJFdzbt7ElDBhOC8y/43GtdMFOKI58N8uycBb4QQXgQfDGe2FVA0nGl+fZODGpmWduSjydQOTVbc+eLacU644NiHrQEOxhHNR7n0TBY6dAy78Y+702A9GrieR89kYUAGC99ufjG6tH1TzuzM3gbjRb1e7309BVKnsrQj+mqo+1PVQMiyMLYxxsZbZfSlVqZrEwam2EabiuwdhJ15+/YLrU1q0yDhIHq7DkdAkQwpxvPqV7Fce3Sc7ARhMsRIyJHaebXK15iuM8oBJXR2VLMNw0ggia3qV+A4oTMRzZK+r9RqNQMTWKiMjDjHSpZ9PRJUYeh4vK1Nd1ivV8aDt1kHmdF5i2tfYD1Su0Y39zOyu72BbodJeqar8lN1wpSCvbc2770hOzRdEVLe6GGODKO2/y/cRc0sBxzNmeq2TpstxbdDfjOchTgie+syVgA1urLMxe6WIfQuQ+a53VHbzOlarJsHTrbJzPTXIzLVHsahc+hShN/NsT9V7dnGLkwlVKkJjg/3PVUCww5ZSgvVDu2oc7j+7raDqaq0WweW4vyIn4Z2krimsMBhS/GIeeqpx6m/zTLswwRypphSoWGLBsF1u9t39kODD6NhKuxHpgZqWbDLGOuOaVpbDVd37a9Ge6asocp2wwKXhkt3TTsGZ+Hbqgo7IKdkqpUvN78AT8B2STmZ+zMVqxoNcLGRsBKZx2aXLmnbvtpQVd6MibCxRLPxiXS+vN71e1+mqmrDuTRiYYi+WhOLwNkVNh36i9EcpNA/CaA8bNEqatn7MNRGOjfidqzavHBLpikSTsap13Vzt23trri8sdvSuycBdKTEvsWRs+feY823G3jXss0FVOuLHcRrtN0h52Nqq0zxL/XyC+fXxNnXLB/4FBWcqEOi2w1LaHe97b3DrfKYDlZQ3DAhcapN4lO01VMa1AWOTn71PkX1VD8zQcsnP6fK16KpnGuDStOEmOkh8CWqhGfJxZhMU0vC8llz1Y8V84iPqDQ9xl8TRwcMOCkPkwmagbLbAt0DczDDxWZgfqhYSVuoQ9HiEVXFwhosX1GX8age1xmOWpv+y7IMpU+x4BQtpTz+1HIT26YHYwobjaSElpzA1Jgcn2AHooxqpeMOiJi35EiHLt8tHhESSQ8jebIG5jzRirpKjuI1mVpYkkdwwJeiSpvFnkNfuqSn1QwFbXBq1+zptNiJEbfBk3LL8gBV1QaWpMQqQNFSyXqjCX3WQfknW8BVhkrztOfINLZa3BUudKfnBDguJGnljPk8VcgzBb5hQajtKPjyVCG9T+NQ0jyefJdxeMpOimD7V1l+6yn4NGyFcm5Z9rAspy6LviombCDeKUmgcqWIFRpEbXxw4uk2zBUcRJA2UrxSmlaHQVQrp4id/JKk91dsEI2VnMfJAXUPSxpDbWgruBemilqSPwNmhIy4jzzQpSNvVsEgJoQncwHd68uIYQB05WSNLVPQeKhaiskaNqsk6q8JyBpTlYIN9LQ+khmnXikma+geUapsrzC/m4EVkTVEV8jd7rhqGae07okk1zfHlEVNFQmaLsgLP/QczQ7AQTmZAvoEkGVoJB4uPRIzGEQlYlE0Fix7wXDj1FbAOO3RjFLpeRSwTVQhikEkewoSYcG1fv45KMQoLafwpnU2iBLN3WNBtKFkXUGhjNanKRmpCHXw16Tx9g4CdSbiNEzkMVbDJUUlQiqdcME5LCvIfCyqVDWn8ugnSwnTjWR8p2R5cP93znt9YrOlpZb5Xj/fMA1xjEnd/YbQhUHcsxhHSiDWlZQMRRH4JipXhw3JnERPKT18pMImihxjs4QMZZwQXSuwiUpk2PstgSKPCee5Eq2EWeoed6I9jk7+YRorQdLMkJRe+Tvh/AYRibUFOSmyWWjxCOi5DyLRFmgjKYpWXpDi2oBNVI4rkSyUDT8Uy4eVYlBy+zs/cUq2+BtULpG89z7g+Sd5+aT+CvYWPTiNnlzA7gDAqQdhnYpMQLY4Boq6i2b8oLYjQ+uD6SYtin4oFnhjBrX8mglSTHJuuuXlWGRejEhCaCUoCiUlUA2mm7hiTProkgGLBvpmQTlBKRnS/iDmlDtci6sL15+ksvwbbb4S89GJ7EhCaDYOwwyleCC4OJWWqXsY6Cm9cMbrGBQYPXMnx43EdSLq5HHyqxcv5QJzCo3b9HCblKx0PiXK9jSHmWrFhgqiRnhIo1Jy3EhDv6INMufjrAeSjpkdqGPwxuMRE6pyfIHtoMC9YVmDbDnSnK9gmk7ABWjJPTUULsRsoGzvfwHHLf9vj4lSWkppRuWslPjwxAhGkUxWu5PhgmTTlEuUOrNo6KAyN4ucDDx3YEbuRjHsWma5KFQB+vs3UBZs+bFTQ5Lcqd1xzQmTNDDKiiOrxwMr4wr2hvS/co9+eXM1dsuNndEFMDTCxvdvfPfLNlRsEGXmp40qHRv7JA3zMhO5St1FYDWC/w8Ou7KVKHlr1xrPg2LhKJP4IkucoFajC++W+8aoOJV/CH34pttlLnKyqNtLE70pD5dZH74Do7X1VoUT4NYvTVAg5QyKoTPPDPLW/cgJlAVFRXZ+bYDWlI+jmf7+n53ENswVnK8L7fqZsEknxDjq8BOL89SNnBV7m9y4CpXdc/WkUpkysLAgPJV6palu5FKLiB9xQurOltPy6HbXPLSxTnl/PAlfhBD1N9QdPc18gwXUCrf0lP2NPeTrqPhhRHq6Lb0DIt0ZZIilILKjf6jD7ggob1YkJwUE0/R3jtkEMlIvh1qfmbZtrwW2Iila5qT4hnl14vSvuHNHCfmghGKq5SDgYi2U9mJMhjdR03XpDpneMPKLNA7MlMtBuG26GtPXjIkYO2nX1Ruy1Zhf4d6FnXqlqwGtao/zijVqPSv1CwN6tMq0lRvF1vx32nLA7ZCZmmPJ17X8oxlx0M1MjjVuxqkf73WZBZffzQu3qSTEtiaTYX2xGI/HlcVKXtTrONTlioFWfbxezZFpkgtQLXITKpxFybHc1ELa3+4urnQbW2VDF9wvmWf15Vs5Knkxw5ErCMMwLBPlWYOxfvIododTK+n6UwNhpzPI+Vzf5LSbAt12/JZMyqyMyHXExnxayf/Em6addMXsytpgZ5lm7bI9rg97eR8Fk4KaEWVno9n4ezDj6AWXLHtj1xkMvxU7Cn8Qa5XvNXY+/Nw51Sq5ywNX8bmlnaYOfyVKOfSgJHhV3l0XvX1h8Gqnit6nJAFdP2XBmqtSqkcy/HL8eToQ08XQp6jjjNJOskZwQ503jO1vqflHtSBrft+7wr4apsE1wwauKVDrRT4WAUXdcPKvE5ICRqFLvz2J8y3t1IETGkasULlzeeiFh9FM62R5vqiG3Dbf1IrrXgUcsRIVwuRjNLV51pJV+5baX9NaA8wP18y/KUWtW0VM5qDvOoqa5lZ0zCiKvtwj1db9Aq+mgmgZwJgDZ/I0c0zH6dxu+2nda2M6nafj95vny7sLIZaRZv3lXRTLfjP8/R/4VcJfcQckYBNJrnNnDhNDhr1lia4gecwyj0ut6r+flYpilH4Erf59lDablUofD32/zQVrcJb4p0Ydb6o6odMYoTBAOfGYUi3QqeiI+Or5Z6lwloTCL87vJrFVofTBR/qiSD/5ueXPjT2DPDiAPQn2yt78/Sv+yVPIMDqiEMdyC7+A4fP2VqXnvRl6lhwKKN5GIjmOeAqGE2QPL4R3XuK93DZLX0o+mWg7zrvU2Juh5rZNAwPFCmMIFZjFva/wGtuszaE+ynvWx8LZeyNZ0jSD13D/3Ajh+f2sCBSbezP0+mwioMh6j67+wvlWUWtYpdDmYIas74X7rY1eOI1/gu/YE4p0EPdkSLJOWflfYLhuMU+5KJcYbp0wJ1dHMfzD+lc639qKD/SD6MsGZVV4Jf/el6GmXTp0owEML7UZUwcC05zNYGOlHcewDwy3t3otbHsP9BGFT/LP/Rlq09/EjvEZggNys9o7OF+90U2T4XUhtNY2QL8s3JB/HsBQmxLXjc8QzmGjq3gzOIFuaDGG2zS/y0D/nSNDre6GGd4ypRe/jAMWKCmLFGHY/W0S/BYRvaXfOTh3hgQBQw3OZsRcHX9pA8PW4gxN4QuhgPPAeoThdkmTCUOoGWpFGzCXJKUlYii0ESIMz8OyPl+GLuuzsOAMPa11HEMNVHnxJXeGULMoWh4tXDz8SIZ3YK4UC5+/Ajw07sJssmEIQiVcrMTX9icw1Brcpi6E4VmkH8GwZsMQzmKHDymtwnbAsQy1/kfCvqHoT92MGIJyd3yXBtf2w9MYehuoe29rGx5BzrH0milDSDcK6lnSO9T9pOITGHrovzz8uuf4/FkCU7v4nilDXtgCvmyBdL2VwTCGZoPvJs6zZAiik1OCLRXWUmDoyVjW1+JdpgyZ+uPFgeB8PZ+0khmyfp8VLzJlqJkhhQHa3ichm+FZLgzZxKQ1dLi293cb2TG8+/HAcDTDZuP1mvkg4wxBuBArDfoZlHjMcAz/PTKr4OZIhneP78t+o/QuYAjbQUIDVEfgIY8wbKXDkO9AwDdT+EkpFw9k2H/s311c9LWPBwFDdgOugbm2Dx08FTE0RQGP/Rg2w7IU/DTBDgSs2cKZx7nPGF6Tz5fwK/GCBdy8aKW7i5tG87G5yRAMNVxvR7T9BkMt2BkfyZAPG10tz2DlFP/wr5cl/5MPRpbaBs09XHfNR2/YvZf0qr1eCBhC9+YswRGH4jVRhldQFKq6meMRYdg8F+DPsnHGLTfaqs/9paV//SaF1odPCtCyRAeb+6wKPxvLvujRGnHveUv35vOsrz0/CxhqkXNEYQdqzE8DcWXLREYUOn8CbXf3WBKgWOSMICBxzwkXeHAmZqwXYOn5LnQSs9nEozcJzukYvnpPfm+IGFZCBSwjBddivrbuHLI8N05W8Q8Yw+JZMgolP0z2sa0d8YVzIdTfGuAokWleXGolbz5rmrcEBAy1eTnoavjzDW/ik42R4OCYj10MC6WPIGym/djW88J9IFqar1taUoYvZ9q9J3bv/t2QAUMerAhDV8cQLYyWQb7CpG0kffz20jJtcvIvAhRhWCoI4U2y11hw9AeZm7FWsOpeIy3/PHh7k3hTBspQ+1XwXt35j4L3WupXFDEH23hO3IF6NarsxqxtLFY86t3GASWcmRju3/8Q4aGxFAj8ZePH9SfH9f3D88s7OLKuYy2by5fnB8Fz79lkvvt4fOQBuQR0TyiiBSE7OWdVG6AePg794VaNeSKkMtQuIuaNGmDiS9p5Y9D9hcJ2p3KWYGZRVECfgj4IldJyd9ssMFyhTV16Gs4/rynCyiV96DUh5hii/oYwnvyV4BhicGMhr2r/8hAc5RTAsOf5VW6QhUSGBsJmbWsK2RdBEkOjM71VaPz+A6XaQ2/dGeeCAAAAAElFTkSuQmCC;" parent="1" vertex="1">
          <mxGeometry x="180.24" y="406" width="120" height="120" as="geometry" />
        </mxCell>
        <mxCell id="i_ElwK9fDUj6FuIoGpUe-17" value="" style="shape=flexArrow;endArrow=classic;html=1;rounded=0;entryX=0.5;entryY=0;entryDx=0;entryDy=0;" parent="1" edge="1">
          <mxGeometry width="50" height="50" relative="1" as="geometry">
            <mxPoint x="248" y="296" as="sourcePoint" />
            <mxPoint x="249.25" y="404" as="targetPoint" />
          </mxGeometry>
        </mxCell>
        <mxCell id="i_ElwK9fDUj6FuIoGpUe-18" value="&lt;font style=&quot;font-size: 18px;&quot;&gt;存储景点和用户信息&lt;/font&gt;" style="text;strokeColor=none;fillColor=none;align=left;verticalAlign=middle;spacingLeft=4;spacingRight=4;overflow=hidden;points=[[0,0.5],[1,0.5]];portConstraint=eastwest;rotatable=0;whiteSpace=wrap;html=1;" parent="1" vertex="1">
          <mxGeometry x="68" y="316" width="220" height="30" as="geometry" />
        </mxCell>
        <mxCell id="i_ElwK9fDUj6FuIoGpUe-19" value="" style="shape=image;verticalLabelPosition=bottom;labelBackgroundColor=default;verticalAlign=top;aspect=fixed;imageAspect=0;image=data:image/png,iVBORw0KGgoAAAANSUhEUgAAAWMAAACOCAMAAADTsZk7AAABMlBMVEX///8AlTkFmAH///4AlTr//f////0AlAAAkgD7//4EmQAFlwHM6tQAiwAAkC8AijYAhwDx//eHvJNGoGIAlzcAjgAFjhhkq2AAhyC727kAfwD/+v8AgwD5//sAjC7c9dy+5MHw/++AwYIhkiEAky+t3K2VyZRWq1LZ+NrY8dfO8M8plCoAhSTy//AAewDp/+wAhCoAcwAdiR5DoEbe8d8AjiV2tIZNoGLy//82lUlrr3sAfh2Z0KQAeCOv27g8kFBbq3GBvo0AgTeWxaJ/tYs3nFWc16qv1LrK8dpbo2kAfCKh1K9Sl1l2sXLP8s5GlUh6wIlwsm5ZqFo4ljh5vXNzqXK47LmVxZTb6eFpwGtSrVKTzI+32LFNoU87mz2677QuhUKY3pwyoDEAZgCCsY9knnQyZ18QAAAbZElEQVR4nO1dDVvbxpYeezwjjeQPiUjBIA+2QVA+7IiCHQrhQiDhJmlKUqC39DZLtnt39///hT1nRrLlD8B2yOa5QedpKcWyLL9z5pz3fMwMIZlkkkkmmWSSSSaZZJJJJv9OwglhXH7rp/h+RRBGJOdSfOsH+Y6FEU4JoBxkIH814YKRt8/35jrf+kG+Y2EkOtkOy+H23E/we6bMDymCCCoI56K43yp4Oc9r7RUFU96Pf+tn+04E4JVAJYR7sBgWAONcrhC+OHQFgJ7p8kMJYMmI+/wFIJwLcwUUr/y3Q5dlevxQwglj7tFx6IEKxxDjz6WzIgm+9bN9B0KBq2HYEb2sejlEFn+isQC8vXD7JPrWD/gdCJWMURIdVMq5EQFVLlfmmuD5mKCEfutH/fcV8HXy/X43LIxijKrsVU6PBMZ+mWGeWUBFm8+rZc0mxqAM0P980sTLMoxnFEaac6fo6wpj9Dh2fbnu/qumEJmtmFrU3GdyrtL1KojwOD1G4NEJht3KEXAPwTOcpxHKOcz/4kFrPLrDNiPcPqgDhdYYZ0hPJBTTl/J1NSbD90rB624fAgX51s/9bySUk8B9fVbWRvd+jIEtF7zWk1cuozSLricTymhxrxX2Io77MUaYy62XdcEzXb5HBBJdAZHz31+E3sQQA8g5pB5e+W+vJFMGOXN/t4gQEDbDD/lmv+VNYoaHkS7klp4cSSxJZdp8q4AOB/LoSSvnYUJiOvEUyOGLlw0RZGp8qwge8GjuRYg+bBLONhbqcPHEJZke3yJY2WhUltCyjo/s7pRCz3gvHb/J9HiMcEoJc9+8rJS96Q3xMNjlpQMwy0xkRG5AhKA8Oqh2vxDfGGTPe3YYQRSTYZwSLgNyVCkXCuFDYAwgh93TBSIClkXWPWHy7ctqqHNpXw6xsuZh63mRM5rlPEEoFkQ7B61urjCDpxuHsafKUjlvqTIXkeDRazLnEDgL+QrYRDqoU1nLydJBA5cPXe8tnR5xiEcetS5jiwQhxSdVHQ33wUG4PJBwIqLsaRmZBYVyuPTu7WMPrIFN1A9Oy2FuMKyL8fbUL/djrCsiY5IbOEqVuc4jpxei8XMYjipgIbfUam1vt1rlcBK+XK62lsrV7vBoKOSBYRQfs7HgJNoPcwOTPC7StV42OlHUKR6etbzcHaqsUsfdJ0cdt1l8dTqcDtXVqPD4MfeEC1JcGpn3AFK4/f6n+JL2+9Oyd7v3QxKx/UuEvURg2E/LCOqQLudyFfcR5y/oKMaos97pOjBmdUEQEPd59fZMJ/y9OwdRomTYZB+d5YbNMvrODONhjAu5F0eCaz/FuaREHHZvNcpgG7abAZccKQoL3i55Q5ciQam43/h7fksZgzH2ZJ41SWxBATzgt+7x7XkML3eg25Cx+k86Pw+PBs6ADOMRkMMTfEWRWtVTSHh0XEYjMM71edUjMOtx1V+4x8P2ODeIMd5Q3NFUBDHRSPKZxo+R3IHScYRbqmEmtM/G74zjsXtM9L4hNjtQOuaz+88lZuwfGePz0OPNDd1fkrrKKo/V42ojFceJJyO50QGM8avgN6Fj+4ooWqjRZVMKY6qxpQgOwjPSXi4p9ubJNEp3deFxrIjxBDbsJyGSkVvfAJ9LvybGknF2WPUq4xoLFcb9z74PY1waJfltXwUwAXtDR17lvcYY2tNi+M9gDZwBagHcoP8wFPv8b/e2WB5OdBOvknz0k/si7p4Wt8ukGINLO2+Nr1JPhzEuK1FAj3sacK96deUgLqBujKXfEH/coM7CW1kgm812n8PcCYpUI5RoLldLiO5Y3MlGn2tCmQxjitolX3fHllGnw5iR+ur5xWp9rCZzAGnzYv78gxz4MqK+Xsd/Ylnv/doUqTZ+ygRrfnQc5x9cPQ8D9lk/XK2Pn98UPipqHDZcFnNUsv7rL+ebQKPGpQnhT+1PF/OrchaQx2GcK5TnRq+k3FWLFUbSFwMYU/FkJG3Rwxgmt3CvSyXDcEprLny3YfvGmHte823TuWzLeMqDXRDRTslx4J++lJTULkVKvSmR7rlvWXZpWYBOgI5v7OKF5xEb/iCYlzRoXjyFm26dNCnOB3no+Lbvz9clPlfqWo50ibmHK45hOvPuDChPjjHMo+LpuLaWyTGGhxdrDqBg5C3nEL7M8PMydlSDV014lcezlknJVku2YeTtWJJfDMN2GiJ1Cxas1ywDbl6rB0DvqXtj5+F9/sWoYsIgbNz4edOGEblwcQjgrZZpGvZWHX1C6lJKGQ/Ip5qVtw3Ln/+6GINsvhiT6ZwcY3Apr2qAUR4f1zkXwTCB4PLSMGAM8saVK7UycR40VywrhXGCMGBs77opk8PFr74FL1mlNWAtkjQcgDBvW7X1kQkjWbRjwj3hxnbpNzdgct7w8ZMtwzmCYR24mLH2pQ+fBo8Nozo9t5gGYyr4q5Y3QuCmwZjcIAimgSiXVpkctsnuFqopXFOqxw5fUjFvWvYQwqDNILZlXssUGcYRQiD8ZTXBf4OrADbTXx3GGEzWpWmbgHAeps3iBmPRloWKioO/spB2FXgj98bHZ8K7mf+YPrs1BcZg75g4GIn3vClsBSdbecO24IvD89o768qapr6QbK/gC/m85deJ5r+MbDj4HvgbfMW8gtbW3zdvGaCjcI/4Dkz+YMIA5W1zmQD7BtXEkbDy/mo65EFqTcH6Gkrl8cNqoJv1FcAXroWb52ubQeqhwLRf+zi14APBWJzLr6rH+DXc03DY5QHGfDKMQZ72MAKEdpoMmzBSw4gYq5dL9ZihcblsqllqDOoxIIym2byQpB/2/6AuygPGQC34vKH1vbSaHkcBlp4f1fJG8iC2s0BFezdvWlY8P35cJ70ZxsENO5YVX2z7a9Nz5CkxhgGvDEXUU2KsvoQWAwBC/5KiBoixkh7GcrOG6pVXOpd6s6Wthe18CBJyoTCGv6Uw1vdKYwxOUsrG07zRu5ddW4CXD00zr6cJvFJbgIt0IErFP3xLuRBUc6sUBV9bj6mkxYo3WPmbFWPQTOcTZTIdlzVHMCbn6PwVcgll06IUC3zhvBTxHRDjfA9jMh5jbCSpb5mmbfUeBPSYBvWSpS+38cFW6oGOhZhcdrR2q6lXOhfTt+VMaysYI69bA2n4GW2Fnu61xijGg7bigwNGRVmFHz5spOR3BwwoOkPn94RrJbbC7mOsjIE/gDFQxo+GMsaJ83QWwIDItZKdWHpQ5e0mkD9MZlw7eat/8edITB9Q34sx3PGPP0Q/XQB0/HkrbSym8HkxxvHMR4Nqb3Wo5L2WcA4Yo0u0LMSYM87FLvg75Y626sFAbLAMXMvA6buTUC0KGKPltLStEPOabll9PQauAjddQ4Zn2vohlB5jlvynixKSOaXfQFh2O2CDpAR3Z8TOFlzC4iYQ64fHmBJWfE3TLIu5B2HaJE+NsaK3tnZI9lU9ULln3sO4p8dIRNYVa4XrwaGzdIaT1Z9aOiAprQrZwzgf+zz4ZjL2eT2MKTCVIACFzcfqChMB/wsYY2zdvvANMx/7PcO86QCNUoYipoqGtbM507YoE2BMij82dNIxlqDzt9wXYozkX3MA/1KiHtK+Hqs/I8YwsPLSR2VDgrURDCSdJfnkKzttWrV45x0q/9SRyi0YE5VFUrGg4o+mYm4xxmCzOru+rXkwsmbjY0QaGN3h56sPqq2SmbbruN9WcFKsVhZIaopwstlK5X1mshVW7MUBzTXSo5wK457PAzvbqOW1v/GXSTAQsUgZ7ZtWTE94grGJd7T6GCsG0scY3GN0pYyxlTcx6lYsW2GM1qr9gwnaqp8PZsPNJycxJzh0tUMmvw7GQCeL1bDSSdFYgP1ou6/Is+ixYf5zRRN+CKpX+QDGfVvBOlu2UiLbvmnKoWQxWgsVmiiDG2NsKGN+mx6DMd7YAT+J2Bul33wVPiYYMxGw5o2ph9RQnEUTc1sFjxCZCDbbrjOT8Ipi1Vs6k5LyxKdCpPSu3DPJM+gxTOe1NQfiViRKxrOIStazx33uxkXD0ZzY9o/YSJ6Aue8W43zcL4pQBe5uTWXlFk/g4mE9Vgl5cWEq0wNaehE5WkVjjNUt6+Bi85rW6bijF1g6h3LWrQ0mw7jgdV+TlMeBKbcfFiqFWTEGVVsjy0pPQKOMS5fp7HePH2tekTBcmKcdnSimiWChSDYbKL/Dv2hGhJAbHzZRPnTA7o7BWJLrkqV8nZV/GkWlfN4exFgE0Y4ilUNiW7U1mNAzrgqYDONcoVA96mcWcCl150kYhjPbY8P/RJqXPn5H0JfSRVM//WAMQt4rH4TZizXRHsopgqYytRIQ0xVSGcogWbCGjaJ0nB6/dyxT+S+kCJEzijELNm5Kiivmk8ST0mYHt06atUVkQltRqITbDRE7HaqaPYvb4Rfosb+GqXdMLmJC0f/EB/UYMGYkqiUR1pVgMcZx9RRLfvA4WH9DhDXlUF0KWE+lALcYg3H9GeYyUY+d/2ASbcUQxniL5o1i5CklNkCLYdY8aD1vnK3wcuGLTpwpgSkDk5UcLnq6CWh6jA2wx0h+n6LPQia1uIHEhQ1gzA5V5AVK568yrFxQRtx2U0m77baVNOEXF0Rim1Ig4b8SlRqUfBBjrGY3dzVdBCd5AtePwRgzHxwTJKmIH29wCOPI7qhZPwTGSl3Dd1J9SBySEfeki2URz2ulav8T84prnA4njqX8Xt662sAUXDqWpu5nYFkAiGFdNZG+Ehld726tbG2taNlK5F/wb2uBMi4uPu+C3Ny8wip+zCt0nAcqLud99QfTMi+bFDHOWylekQijH3bMVJLPMvwLl33J4qHJMS7kugcRtj5o1ydk4O6V9Xr/KTFWARZgDCHGmg/kDaemsdsMwFEhxjqW7vCNGubM4VXQeRIIyuotP/Hyth07fZ0vso1dCdZY/umrITKXQW2VHiv/pvSYy+WSpay/bd64Afg/tMcpftxDRLL/NHVAjwKT7nMdFyTN3t07BcYFr3qASkyThgTu/hVivmIWPfavsbrHpaqLWHkDuJRgGmOdp61zsYwYgSkxL7HnhdNl04j1K99P6Orckn+EPSDIj+O8G0v4McaMgHHAVx0FMNyzVsd4jyqMR/WYko3FdNnFsEsX4os6IifHGFdQb6/zXkyNm5JtVNBYTIsxuhHQY5zODJXVVuyhtIYOJ7bHdqkj2eaiSqQDCfkAxluIjwpaHVoPMCvbuFGLhwXm3fDuv3Has8caYwpU21C2wXY+ScrgZYXxkM9D3enspPPUCuRrfnuP1kNiXMB+zrNiwhHBk4PevYJ4DzAWU2KcR5+n2qDkmy1MdRlgdRcblLkrcaLc78DtL0yVCDPM+TYYKbmLQUvCpwxbZxFUOsHfEBxCbZ2jB9VfxvxKgjHaCrZxaZgYQmNBFfyn4IKNwRiClACujItacSYInd6aK2ZqrZgSYyXhaTvV4gET8rDlFUCPezJp3g24WzwujUUV74GWrWygHlv9WNq9UpoH4fYn+Pb8IkkeKDtqxdUJiHTN35SWYSytJnc6llb5Y9G8UjlouJ15kSSsR20FqDdfr5la3e2kvIUOxHmNm7qy6Wt5M2DsdQ/SeRHK5MESYCym5cd5M8YYe7x8lQUD+K6i5oppJflj+MarvqG19WkbpkrxmdUPwQzTiLmVDSBpdo15N3RigzkhGzC+MJXdBxt1FQVx4mPU5zHOoi1DOeXE5elpY9r+nKTi/wdjIBGvUg4WyH6nElaLU9oKdP2JHgOHutJ1HEyutbe0u9H5CgLWWiutA+ZIysOn/VKT75eSkpxxmeSP/1S1pjTGuma6WdLlKtve2uDoB3oYD+gxE51500iAzcfsReWk8rUjzmbcxmdKjEGTtxfSRV7Gi3/NkqOPMaZALtg6+D1Vybed//pXKn8M/OvvJZ3bNP5sYtdfu7Gakj91ksx6tsl6GKvqxmDezTb/uYNmPdZ4EbcasjEYR1dmqjBr+qmmJGtxddZtv6a1FQBYZYP0BhR53Nv/nppX5Ht6jD/EqmObliqj+UkQixgLxtpXhmpgwSwzo+lAgPJiTRf6IBCPl1WkaqYpW4FpfAsrRkApVgVuR6XvMODzKJEiaCLEScHb8m9WSypLpzorIBbFR4aHmBroafUY1+3tRenSkxD/86ZPbCaO89b648LEWkmRC8XUUjVTIC4NNXXha25FMh3KYsonVjGnrjsvk5rpsM/T9ABtvnnRTlnUAT0G+v3TH/M+MvU4ujOu6uLQwfE1NCPM18Bg8RmqTVPbCgCs/E6koh4ZyD/6Qzuhz7PTGFMp503tanQirl8zJQQIgU69nQiSsoeca8ILbmxein5/xZA9jkO1OL7bdtM7rw74PMqxnoe3wzfgxR87wDI+4QyLKyGGVWvARwVfXY/VyvPq89RgYvf6dLX/tK3Q4LDmjpHXQXbKVqhc2u+OpYOHrYjRfsGLuVeqYGzbT6N0n9A4W6Hph2mt1EmqWY0NYkzdq5Kh1F07x6uO2goXzJh2nNj4ZT9bwH60r4yx7tpUyeQ+QumWtVlsBXKm4pbq/+t1XCmfJ3X2zFB/NpcxaZS8gx6WLBPzGT5GbQO2YrAunfisvO00pExPwIGcEBVYgsW2NlPNs48RrhUJBLl2bCupYxvG546cPuCbWo/V6952xMcfDwIY376uCaKrp7rNzzLXBhKFjBzVsDrRy8T0eljYpqNCFIDi9/p6T35fVF3Mhl3rr3cHjM18r57H+LzqjLCUQYFROxl63ijOESHGkkelpI8C80yLUewbsdsNtVsXR6zSAfn6Pg8FV7AfA5XnY0Cm8g6MAdancVuTvzaUjJVrTirPk8JYXGiXYxulUqoby8Bsu2n5n/ohEeeAcU+Pmbzs6TEWty7coeMJFMaxHgu5ZhpxawX8/LyJRXD8fIjJwSHrfht8itL69IcczIJxwSsUwuP22GaDO/WYC/7UHo6lY8HsRJ+O9nuxBNtw4ljA6g9B3ONnWotR3z7SVC8W/l+CMbZIGDeSDXUOpzEm7V0jxhh09lmdBTw+lYMG4sDBgF3dzCh9pb7NEYxxY4DuCR3XlXQnxlTwJK/mrw0Wbhh2ttv5Xqjc7ynkYk+Fzbobop/VVaFh6VqmTJb4wVR6CBhTyvmFGbdwgIt1GgEbDITB5+mxyjsQVdVXerGHXWtwXCES1yJgbM59xcTVc58/YI93yuqM2uOcWl0q5GiBCzEe2Qujr8dkK85ogR6nH4Jg5qKxgkUPVUuzV6J4Qy0hgmhFN1lY6R5k7SB326mvTPlvcY/3mkAtXC3pjA62GDcoH86yu1voCXH5SJGLaEv9imq8tamW+MVDx5FaXpR0qgpu/ev0xelbMU4GnfJRjDVwrTeq4WAoTXKnz5Pk3NfzsbQ5nF4BhVnfUa4d1NQ8l/E04QzX3OSt4YK80qtBi0ODDw6OhF3bxIQ9cZ/qrjYjv7g5hg3Ic9PEwTIvXQjpl330q/Bu1Uo6iCNrL2PnrPITmw+4HuRejAthxQ3YyIrcuzAGXe3ojEDpcmQZHAVUF1ZM3VbsbLLeBTKIdqzhNnqVcbQ+t9NnGbHAvTLARpu/uGD5wWkdOqojyP+8MK6QQTtbPrbd7Wzg2qlNbJexTGOrgSsuB1Uexvm8ZKlMyOhzf02MvUJ4gJ0ioxjfbisCV9S3Fx3n2bk7nMMSDL4pX79YrJWc2s8LvYV3uHqDXz9brC2Oyo+vsNDWh0KSjR+dknMVwc0E3EE2buB9V5+aY3HhJDrfebbzSyTUtWvPSn6ptr/OsVd32B4wdw0e26l9rI8ueJsd40TuwLjQfeeOlBLvwhjuBZhE61GbBMOLZnGPOQ5/dqP1elOg6U5cHnCyn1S1Py73a8H/a8o0WwUuyUl7o7EOU13NLx5g6+GtfRFSBhRfDgTaJU6a68WNCOMhNqI4GI24641GJNldK6onxxjAA4z7yQ96iz3GivQb1XMp+l1aXDwZOXQoZSuSnSHHLEtWbFu3xKeW4/fOixqfi2EkVR7APQEo0yughTqQjuuF2XS0WS7+THwcvQqVx4uhcbn8CClNvZvTqYnF+PXSgLFInl6Qt60xGGtdrtQZopyqjOB66VsxfpwyFmOvfNLbSQB+NG7DOOeFpx3VW9a7H3P3R/YqyzAeY4+93FmTxcZCUPluzJFj8XUQ7zWDdDY56LwY3k/o0WM8Zq8bnOrV99pWYWrl7bPbNndDLFu/toO+G2DkfbeQYTwoEjAes3mbtx9RTIlzyuReeAvEuuViac8lDDcIYpQGZEGt3hu6zCs8aowhUt5GgIdQBkPbQJADsnm8dPd+vXDp80itaSCi+XzJy43EIJVHrseEdCrhqB4XCt72QaP+9u3hdvmeg0Ig4OvuHxwVO2+Lc2dddWzh4OshYL7/uPeCFIfPvNHduwGnMu5pujTBUSxwRbnaAumG5crozpwQq7SO7n+S71eA9Ltvzrb1AuhCGrZkn1PvnvOECjm973G8e2k8QPFL6katgzfZIZHu+0rZuxfMe2VwMqhNvdEn/oVK/OgxZmR9b2l0M6YvE32MS3fnuUs4nz4h+J0JxZTH0fFMp2DdLriOoby91+Aj6Z/HKdh52n5/Wn1IRS5UvO7ZkUCvqnYmfNxCudoIkDQPWnr7ti9UZ328ghdWTwSe/427jD7i3Y/TIiSXjdOuPlDhS3UYMF56WeTZITcDgllTRjpzZ9Wpz80bEeAoS0/mmtmx3mME98pxT1rhl1mLsud5S8/v2q/1sQpVvc8SGEbxydLsmqwN8V6ds+zg9BGhvbXQxMWz0dW29JMfJoSiHabX3X/lxluKZCjfIpLS6PV2V51OOo1t1sOxVLluz7TrzqMSPPqYdC521Lyfxmp4lUK4s9fUdieTu0To/RIPMYcx3Wl6YXf/KOkGyGC+S8BZqRP16u8q96Tnh6S8/78dEsR7kGcY3y/orurHXe/euE8dOYbNFtXjepZfm1YYc4/O7iXLOoXpVfcbkj7ywwhnENzNpHMMIcnd9TxEOawedHDxQhZ3TClU7Yb9dq96a2Fa67EXbr/bEEJ1ymZmeDrBDXpwYWXjWFf1RtVZF6OqT4oiaePLbMUMgi159YNWGBuFATOsy36tk2YWz32ZgH6qhedeboBh6ADFCyt7m2T67WozGRCKcR8VxUp1oFlQl6Or+0VObus8zWRSwSZZbB7vnFQGTgnyPK9cOYwe++HRDyGYe0BPJinZOK6Gykbos+bD6ruOsiTksZ8f/XDCiLv+F6aWcVO3CiBcl2TGk7gyGS+4LpBH19uhOg+9e3r4mI+B/VqCW6ZxXjzrhjmv9a5OZljhk8k9IoBf4DF678+2nxy5eMRiFtQ9uMR7QFLpxketZoTiq8nsuy1nkkkmmWSSSSaZZJJJJo9O/g9sXpvT2hQYowAAAABJRU5ErkJggg==;" parent="1" vertex="1">
          <mxGeometry x="180" y="-208" width="415" height="166" as="geometry" />
        </mxCell>
        <mxCell id="2KsN3QUfzM2E6YbBd9yf-1" value="" style="shape=flexArrow;endArrow=classic;html=1;rounded=0;entryX=1;entryY=0.5;entryDx=0;entryDy=0;exitX=-0.014;exitY=0.596;exitDx=0;exitDy=0;exitPerimeter=0;" parent="1" source="bMk-UlgrDt2UOq0v8GuX-6" edge="1">
          <mxGeometry width="50" height="50" relative="1" as="geometry">
            <mxPoint x="723.19" y="-39" as="sourcePoint" />
            <mxPoint x="578" y="-114" as="targetPoint" />
          </mxGeometry>
        </mxCell>
        <mxCell id="2KsN3QUfzM2E6YbBd9yf-2" value="" style="shape=flexArrow;endArrow=classic;html=1;rounded=0;exitX=1;exitY=0.5;exitDx=0;exitDy=0;" parent="1" source="bMk-UlgrDt2UOq0v8GuX-5" edge="1">
          <mxGeometry width="50" height="50" relative="1" as="geometry">
            <mxPoint x="245" y="-244" as="sourcePoint" />
            <mxPoint x="191" y="-120" as="targetPoint" />
          </mxGeometry>
        </mxCell>
        <mxCell id="6fkP6XUHWRdqn1WYPsik-1" value="" style="shape=image;verticalLabelPosition=bottom;labelBackgroundColor=default;verticalAlign=top;aspect=fixed;imageAspect=0;image=data:image/png,iVBORw0KGgoAAAANSUhEUgAAAjgAAAEcCAYAAADKoM5LAAAAAXNSR0IArs4c6QAAAARnQU1BAACxjwv8YQUAAAAJcEhZcwAAFxEAABcRAcom8z8AAE8hSURBVHhe7Z0JmBxVuf7D4hURdxATYpLJQma6qifBEdnEUSBhpqt6JgGibApeFVRcERUFjRsIooJyvSiuqKAgesEFWUQQZBHZwYSgEGXLMl3dPZPJnsz837fmVP49PTU9Pb1WZ97f83xPVVedOlt113n71DnfmSSEEEIIIYQQQgghhBBCCCGEEEIIIYQQQgghhBBCCCGEEEIIIYQQQgghhBBCCCGEEEIIIYQQQgghhBBCCCGEEEIIIYQQQgghhBBCCCGEEEIIIYQQQgghhBBCCCGEEEIIIYQQQgghhBBCCCGEEEIIIYQQQgghhBBCCCGEEEIIIYQQQgghhBBCCCGEEEIIIYQQQgghhBBCCCGEEEIIIYQQQgghhBBCCCGEEEIIIYQQQgghhBBCCCGEEEIIIYQQQgghhBBCCCGEEEIIIYQQQgghhBBCCCGEEEIIIYQQQgghhBBCCCGEEEIIIYQQQgghhBBCCCGEEEIIIYQQQgghhBBCCCGEEEIIIYQQQgghhBBCCCGEEEIIIYQQQgghhBBCCCGEEEIIIYQQQgghhBBCCCGEEEIIIYQQQgghhBBCCCGEEEIIEU1e6Ji9z6oFrS81H4UQQgghGps+t21vL2Gf57n2IeaQEEIIIUTjknXir0o79tcyrp1KJ+Pd5rAQQgghRGNCcZNyrAsgcPr6u+KDXpftmFNCCCGEEI3Hc4uaXwNx81VYdlN362DatQc8N95pTgshhBBCNBb+mBu35fy0Y2U2dLUOrmPvjWNvl8ARQgghREOybkHra9lz05u00xsgbLLJ+GAvTAJHCCGEEA3JmkTsdZwt1Qdxs7GrdTDj2nw1JYEjhBBCiMZkmLgZGnOzwyRwhBBCCNFwUNz0uNb5EDeZjd3xYeJGAkcIIYQQDUdfx/x9PIibXjdc3EjgCCGEEKKhyHTPeyUHFGdcyx9QHCZuaBI4QgghhGgI6MTPg7gZmgoe3zGgOMwkcIQQQggRebLONF/cpCBu1nMqeIioyTUJHCGEEEJEmoGFsVdT3MCGxE0yXNTkmgSOEEIIISLL8+7+e3NAMZdfWN/VOmbPTWASOEIIIYSIJH0ds/fhVPAMPRR3j/1aKtckcIQQQggROdYl7X0DJ35cWwoiJ1TIjGYSOEIIIYSIFP104jeKh+JiTQJHCCGEEJGBHopTndZXCznxK8YkcIQQQggRCVYtbn3tkIdiqyxxQ5PAEUIIIUTdCZz49SYtf0BxmGgZj0ngCCGEEKKuZN9cvIfiYk0CRwghhBB14xnjxK9YD8XFGgUOtxA5CZOUEEIIIUT1oRO/dNK+aDweiosx9gD1sQfHtbYg7qNNckIIIYQQ1aWPHor911J233g8FBdjFDe0lGN/f33X3CkmSSGEEEKI6rFqQetrfQ/F7vg9FI9lfV3xwXVDvTfXecl5lklSCCGEEKJ6rE7a+6Y4W6qL4mb8HooL2TqIGwocz7Vv63H3P9AkWRWyTnxm1rUWek5sSTZhvx2fj1qVbG0yp4UQQggxUUg58/aDuLmgz7UyFDdhIqVU4yspjuOBuHm4J9l6hEmy4qx1Wg5Hep/vTcavTTvWA55j/TPt2P/C/v3ppPWrtBs/N+3G3myCCyGEEGJnhmtLpRKxC/uSdm+5TvzyjeKGSzpA3CzzEvbbTZIVZchPT+x9fUnrbgqp7YvnDVKkcb8fxvS3LW4dNOtm3ZVKWu/hNeZyIYQQQuxsrFvc+tqeRGU8FOcbxQ3H8XiOvSzdZZ9kkqwoPV1zX5ZKWOfQCeFmCJlCY4Z4zpQxk3Ksz2YXxl5tohFCCCHEzgIbeM+Jc7ZUphIeinONvm7W++LGWp5O2CebJCvKYPuk3SFu3uO5XPizOCeEFDns1cm4VrrHsT7w+JLYf5nohBBCCNHoZLrnvXJoKnjlPBQHRp85FBEQHk+kE9Y7BydN2sUkWzEYp+c022k3towDmHvHMSCaZWVvT8ax/oI8HmKiFEIIIUQjE3gohvlO/CoqbmAUHGnXWtHj2CcNtrfvbpKtKOklba9IudY5KMOWofTC8zOa9VGEJePbvE7rC9UQYEIIIYSoIYG4gQBJV9JDMc0XN0kIpiTETYd90pMds19skq04a52WOZ5j30pxNp7em1wbOGYet7/uX/yGySZaIYQQQjQavYsOfI3nWuenHTtbaQ/FFEqmJ2VF1rGOH6iiuCE9HdaBKMsaDmQutQdqyyJOh7fu7Utah5lohRBCCNFI9HXM38f3UJy0hjwUV7DnhgOKfXGTtJ/0IG4GazBwN+3ED/dce3spr6cC4/RxbJdBIC0y0QohhBCiUVjH5Rc4FTw5tPxCJcfc+LOlTM+N58ZPrNaYm3z63NY3e469ja/E8vNUrBmB8490oqXbRCuEEEKIRmBNIvY6L2Gft84XN9XwUOy/5nnCS8RPQHI1G6yb7bTf6DnlvaLiTCps71kj78ZCCCFE40Bxw9dSfRA31XHiB4GQtJZXy4lfIXqd+XPSbuzPXC+r1EHGg/4gY+s3rCcTrRBCCCGiDBfO5GwpNP7V81Ds2st66iBuSOqkN70841qfRBm30edOWD4LGaeJb+xu3Zhy7M+ZKIUQQggRZXoXNfuzpbJu5cVNMOYGwqJqHoqLpa9rfiztWo9RbI3X0R9nUEGg3ZZyYm8y0QkhhIgWu8ydO/dlU6dOfQn3hw6JCUume7rvoZhLEVTLQ7H/Wsq13mmSrBsr29v34CKbKO/qTd2tvvgKy3eusQz+EhKu7XHRTROVEEKI+rJbLBbba//99997zpw5+82cOdPGdvHs2bM/PWvWrLdhW1XXIyLiDK2qHf+q51bRQ7FjLa+mh+LxsqY9thfytzQDkUNBx1lV7M1h2XONx4JzEEQZCMCzHl7Q+lITjRBCiDoCEWNB0HwR9iuImUewTcHWwTZC9JxpenHERIQLZ6LRPp+NN3soquGhOJ20V2STsRNq4edmPAwMrSj+HoicR7LJ+ADzy/KzR4c2tO+XZQBi52H2Pq2SuBFCiMgAUXMyLANBsxWCZpA2d+5cf8teHAmcCcpzRza/xhc3fs9Na2XFDeIKnPj1dMZPrLaH4lIZbJ++R9qx5mXc+MfTbvwPEDFPwbJpx17nufa/0knr/zJO/GOZRGz+4GltLzKXCSGEiACzZs16H8SNL2i4zdv/pATOBKSvY/Y+9HODxjxTeQ/FZsyNa9XMQ3G5DJ4yfY8e127u7bYOhdg5MuvEj/IS1qFcu4oiyAQTQggRIWbPnv3fsK2BuJHAmeBwKviQh+Kh5Rc41iRMqJRiO2ZLufaTXmesZh6KhRBCTDwkcMQO6Jwu5VhfpYdis+RAxSzwUOw51hMex9xoet6EBg+X/fDgOZGG/RNKMTyo3oHtMXPnzu3C1sHnI7A9CHHGmpubuZr7bkOpTTxQB7NYN9iexLraWQzl4ZiKYzl4dMmSJRP2/oriwHdFAkdMmrS+64ApFDd9VfBzs8OJnxNf7rmxE02SIoT+xc2TX+iIxQZ38oc3Gqij8eB5AQ+ZVdg+X4rh2mexfQrbFdguw/bvsD/DroP9AMe+DPsg7Fh8Pmj69OkTxrs0ynwyyvw4bDX2Q+uvEc2U5wnYR3E/9XpYFATfEwmciU7vkUNO/HqTdu9Gf3xMuFApxQJxg/1lPXV24hd1Mt3zZniufUlvMv5/PW78SHN4pwQPl8V80AQzGiptjDeIG2ll8ZC7E3YpH3gQV4c0NTXta7KyU4JyfgDlzlSrfutlLA/K1Y/yfV6NkxgL/t5hEjgTFTSqr0x12p+DuFlb6ddSOWNulqWTEjeFSLuxaRkn/u20G9++ZdG8wV7Hvgn1dsjO+ioPD5lFeQ+bqlrQQJrPKyByLsb2KDSYU0yWdipQttPxYO+pVf3Wykx5srBz1TiJsZDAmcCsbJ++R0/C/jTEyBqKm8oOKLZ9cUMnfhI3haG48Vzr255jb6NvIK5pxZlmWde+nlPQTbCdCjxkaipwRrEMHn4/Rh4Oa23duXwYoWwSOGLCI4EzQeEMprTb+s6MY/+HSxJU1M8NjA2059orKG5u02ypUXme4saxvgVxuYV1FojMoUHZ8e2oy5+sPjI+0wTfacBDpqDA4fFSLSy+fAvC4uG3DZ+fmTVr1menTZvGgck7BSjX+2Hpar2iyq/PfAu7phJmXlGtR9mWqnESY4HviQTOxGNwF89pPZoCZLyLSo5lgYdixP2k58ZPbAQ/N/XCFzeudWlf0t7QjzrL70Gj4IHI2YTjlzyzMPZqc9lOAR4yhQTOAIzCoxjbbozX0HbEM0rcw4xhTLg+2NUQOm8wWWxoUJZq9uAMq+dRjPck7H6VZSgPt2nYOWqcxFhI4ExAPKfZ9hzrHjagfB0CMTKsYS3VfHGDOH0PxW4ssh6Ko8BzC63Xe0782+u7Wtdxvauw+qRxRhvuUV/asT+3M43HwUMmVODwHzoeSNfBTobYeOfMmTNPGc1w/l245n2I4+PYnotrzsP2O7AbsP8kjA1i0UIH262I8ybYW002GxaU5XCU/yLYd7F/WSUNcX4L9ksY1/UZUY84/hz2L4Edz3sUdu9KNcR5KowuAlpRTPUMi4LguyiBM5F4tmP21JRjXc1eG1+MhDSqpZgfX9IXNyu8rtbjn5S4GZXnuiFuEtalG5LxvmIGdm9GGM+xn88kY6eaKBoePGRGFTjYfskEo6AraO3t7bvzIYWH2Mtjsdir6f8GccxFHPSHsxBb9mRcDnuKaeWnl2s5529CFIci/oalra1tT06LRzmmVNo4Aw312Y56+kdu/dFM/T0OYdNlshJ638qwXXP2hSgIvqcSOBMFrgyecu2ladfa0tc1tCJ2WIM6XuNsKX/MTdJ60nfipzE3o+JB3PQYceMLl5D6zDfeJ46TgjC9P9XRfLCJqqHBQ2ZUgYNjS02wioDG9vV4yC2AnY007glLNzAeh/E1yNUzZsyYbqIQeaB+ZsIeDOotMFOvj8ESJqgQdUMCZ+KwSyZhHdPr2s/nDmYt13Z4KHbtFXTiJw/Fo5NaHJ/a41qXrkvG+4sVN4HxnvUn41s8x7qmz91/bxNlw4KHTKEenC+aYBUHcb8FD7yvY/usEVPD0qeZ4/S18hVcwh4DkQfqJgZ7OL/uTH0+jnNJE1SIuoHvoQTORGBNYs58NI63b17UOpip0KBi34kfe264/IIbl4fiAvC1VMqx/6fPjW9gb8x4xz0xvD/bzY2vw+ezG93TMR4ydRE4hB5wke57kM6DTD8/DzTmAw/Gp2fNmvU2c5nIAXUjgSMiD76HEjg7O3Tm15OIXbyxq3LTwQMnfthflpaH4lGhEOFK5BCB/5Nx7c0bhnq7RtRnMUZhanrL/t2TmPe2Ru4tw0OmbgInAA8+l410mMDhMZzbgv1rkKeXmUuEAXUjgSMiD76HEjg7O14idgIEyb85qLgSr6Yokjb4vRDWk3LiV5jn3bY9IW4+lXaGemBKFTeB9Q3dw22eE/stx/OYZBoOPGTqLnBIU1PTEjwAV+bng8ZjOMf1jw5HUL2qygH1IoEjIg++hxI4OzMbOGPHsX+9bdG80AZzvEaBNCRu7Ge9hH26SUaMAmeTZV3rHbgH/+E6X1nONMur0/GaP6DbsTam3dgZjepnCA+ZSAgcsAvSuxC2IT8v5jOPf129OMORwBGNgATOTszg0km7ppPWZ2Hr2SiGNZbjtaHG1U6lnPjHNFuqOAbdtj2zrn16xrGfpzgstxeN/oY4LT/jWMuzTrzNJNNQ4CETFYEzaeZMTgiac6dJe5iZ/D2Ih+RUE1wA1IcEjog8+B5K4OysrHVaDs+41r1bFlVmEU06BUw79vqUa537zHEH64sxDp53J++JuvsMxM1aipyw+h2PcQyUL5Sc+AV9blvDzaqKksAheAh+Bdafnx/zOQPjayphQF1J4IjIg++hBM7OyOBpk17kOfYPNnS1buZsp7BGcjzGcTcZl0swxM9PH9X2CpOMGAfpJW2v8Bzrm1nX7jMDtEs2ipshL9TWKi67YZJoGPCQiZrAWQh7JL8Xx+SPr6nOOPhgifoA1FWjC5zd6R8J1jZz5sw3c7acsUPwHYgj//uYcJFiydDsyXGPB6NDzGnTpr0KZavbq1b+fmKx2OympqYDg/pm3aOuD+Bx2OtgFX3ljrirKnCY37a2theZj6JWeE5LwnPtf22twNgbf8aU3+sQvybTPW+GSUKUQE/X3CleIvYbCpxyx+P0wriWWMqxLks5c/YzSTQEeMhESuA0Nze/Buleh+2w/DB/eEBuxv4l2G94/0OVAnXSUAIH+dkHDWoHtmfDrkAeb4bdBePrRzompFdm5vsRbO/H9g5sf4ftpdiejmu5RllNZy0i3f1gh8NOQb2eh7z8FPtfoidpE2RUIBymIfyJsItw7a+xvQXX3g77M+xG2M9hX8BxDrKvyutXk4djkc6XsP0ltrdiey/sIew/DvsH9h/FlvfgXmzvxPZG5Pdy1PdZsC7sN5noSgLxVUzgIJ4Yrn0njEvC/Jx5hd1Cw2d+V66CXYp8n4HPB6l3qEpw4Gk6Yf8CjeiWcntv2AibmTsPp50WddNXgFRH/OC0Y/293IHffi+OL5SsNZmkdYyJviHAQyJSAocg3cvyBY4xLhx5LR5cI2atIfwhOHclHmw/yTWUi9vPtbS0zDFBawr/6SP9k1CfI/KF/LJxK+u3jLgaQuAgP0fgvn0ZeWID9CgszTzyPvO7NpbhugFcw7W17sJ1FEanT58+vap/8jgmDHn+ItKjELkf9m9YMAj+tkIetpFXNsJLEe5m7D8F28xysLy5xrhwbh1sBcLehM9fx/4CLvFhoioJ+phCPHS/8A2ThxUw/9VvsXVu8sZ1ziiAKCC+hf3jS1ntH9eWJXCQ5/1x/Qdg/O38Bdc8DfPvRW59BvnGOX5fXoDdi3v4Kxw7E/uzTHSiXDiwONXZvCCVsP+zpcyxHkOvQfwZO5mUEztFK4NXjkyn/e7+ZPyZYtaiKmS8R1sXI46k9d3VSXvMf3ZRAT/8yAkcPIi+jPyMtlL2bWEPKoTvxPH+3IcdDcKGZduE604xQWsK8kQBclssFhuRL5YH51wTtCRM/FEVOLuicTka+WAjex/ysj238QzyWowxPI11x+sR1yrYb3DuQ2GCtxIg3rcijcd574I85+SbQm1Ej0tra+tLce5dOPdHmC9q8q4bYTyXWy+wh7AfrCE2LpDmi3E9f9NckPXR/Lhz0y3GQq7/J+xqpPNRWNGCAWFLEji45gCeh/0Otpr54HeA1xYqT3A+J+8cv8fFg9mbpvUZy4V+V9KOdVVv0t7sDwrOaxCLNfpr8WdeOfb2dNL+5vIuTZOtJNmFB786lbC+vq4rvpWzosLuQbHG+5R17P+s6bSONdFHHvzwo9iDwwfaxiAvuYZ8/q2pqWl/E3QH+Lf9Wjy4+BojtCw49y1sa/7bQfqnw9bm5scYBdy1sLJeaaJckRQ4SL8Z6Z/DvDEvppEZlsdyLIgT8ffjM19TuJUeN2LGpdxlfgu5xp7EEQIHx/bDsaXI23Olljenrs4w0RYNrp+P6/ja5slK13dgjJMCA+Vcj8/XQAS+E2J9zLXiEH5cAse8VvsA4r8J57eVWx5eyzgQJ3sBz8FnveYuFfbe9HTab0Sj98ym7nJfTfmrgw94rnV/NhmbbZIQFSTdYbd6jnU7HQCyJybsPhRj9HDMmXIQpZesWtD6UhN9pMEPPXICB3n5OB5Effl5MvYg8jbXBB2GKcumsLIgvvuwX9NXu5MnT94T6X7f1OUOM/nbxMYB58v6N4nrIyVwONCTPR9Im+JtzEaJ5wNjPeVacDzsusCC67D/JMr6MYic15mslM14BA4+U9x8G/kZ8f0bj/FaxPMI69BEPSYcNIzwXbie42bGrDNaEC7MwsLnG8MZofM8bEwnswhTrMAJvj8/hG0sNj/FmvlebUJezudgb5OmGA9r2mN7pR37a2j0NpTr92ajP3jV9jJJ6z2DGiVeNTLJ2Kl9yXgf/dqE3YdijWuMpRzrgZ5k7AgTdaTBjz2KPThn4QE0wuGfsfuQt1CBw3E2gANWh73eYjyw9YjzUyZoTUADeRjS/Ft+A4m8cHzAE5UYF4R4IiNwKOiQ5gnMT36Zc41543mTx+0In4axoVwJewrHVsKexT7Hf/iCISd8qJlz7FW4GGGnmCyVRbECB2nvjc98DbclLI9B/sOM53Kv4T7ivQJCbZqfiTFAHl+BeNhL6PfaBPHkW5BOkCbS2Arrg3k4vxZb3gP2hvF17qj5yzUTD+/XCSY7o4JwhQTOWQwTj8dfxXD4/GhYWYK85OYt91wxeaaZc/yDcaYGIJdA1onPTDvW4xw3U86aU31d7L2xt3mufX36qJmaEl5FMsnWpoxrX1HuPeNMN1y/1XNiXzZRRxr82CMncPCQ+zzSZiMyLE/GbseDKbQnE3l+Gc5/EtePaGj4bxPba/BAe7UJXnWQ3jmw3ty8mP2NyOM32DiZoCWDeCIhcNhQ4L68F2k+bb47I4x5oiFPm2FceoOzdn6BevgctmzYFsMc7B8LOxn7n0T472Kfs3ooftYFcTC+MEMYfm9+gDyULXLGEjj4Tk02PVa8z5n8fAV5RRxcEZ/l/Re2y2nY/ye2HLTM15e+mM+xM8009ILw+444Po3rV/M6bEdYECf2t8GYFtP9C+zHOH4+8v5ZpoeynotjX8f+92C/wf7fYRzIy2v8nhQa9ncY6wVhbsS1Ywp1hBtV4GD7ccuyXo/9L8IK1SNnUVKM8bvA7za/F7/HMY7PuQ3G7xMFl/9KOD+eEHsWlkD2tPxLsQyistY6sSUQOP3l+lhhbwC2//QSrR0melFFIEwWoL5X7XDeV6INLJ7HXrff9XXMj6QPj1zwEIhiD84lIY0KzW9YCr3zxwO7DWFW5ZfHPCCfwMO4JrPcTONzfX45TL5W4XhFVkdHGlEQOLsjHa4Kv3KU+xbUP3sN2FPDmWRJ2D6c7WP8l7BB5/TvwHalzxiEeXEsFtsL8b4R++fDHoaxpyY0HWPbEOZy2MsRT8mMIXCu4+swbI+CPR5WbuYT9giMM6Nc1EEztvtAGNEVwkx8Vw/F53dj/zvYPgZjjwptzIHnHG+E6zhWbY251yPM1DkXqvUHZCOP70ba+5tXpy9mvbOOadxnnDxOscrXN9jnAN9Tsf0etnwF2IftQJAey4xjlyI7Y07bR7gRAicwHL8IxlmF63KPB+ngHGeZURjye/PfuC/8LuyDPO/JvNJMmV6O8PMotLH/R+z3BnGFGeOH/aTQbDiRx+pk076phHU5BM429gaENYDFmLl2e49j/UhLMdSGPnf/vTmQ23PtgXLu3eZufxzOE+lEvNtEHVnwA4+UwDEP7itNj8sOY/7w0NoCuxyN4qjjLPjgQ9hfYLs1v0z4zIbvWyZoVUF6Dmz5KA3fnyrVk4S46i1wdkU6CaTzBMuaX+c0c8wfDNzU1HQ47t8red3Q5cVDoYPGazaMg5f/k5tGrpn02Ljx+ztmT8hoFBA47A35Pwjtg7C9FudHvBLFdexlOJv5xXkObg8trxEVL2cjiy1FAHtRWs3pUUE674L9K6y+A0Nc7DmicDicooppmcuLhsIH9fAKU+/vQ3ycHeaPj4Nlsf8BE7QgCFdI4PBV5LDxNtzH8Q3Yvx3b98Nm8XtTTBkYBtfztSHF2SO58eYb067Vn56dgkwiNt9zrJXl9gJwsGrKsZZ7SfXe1IpB/BPxEtahaddas66M+8dxPLAt+B7UpDEtB/z4IyVw0GhYeOjclt+omPxtxPFz+cA1wcPYDeGORxwjuroZJ47/BddX3ScO0vk2jP+ed6Rv8uOhoTiT/5pN0LJAGnUVOEijBWncy/Ty65tmjnFMzWmo/4qMjUE8L0Mdcgr3DYh3+2jpwuh/5rjBwcGSHAOOJnBwbDPi/gO2l+Mze+OGnYfdivNHUJCZqIqCDTPs1Yi34MBzxP8m2N9D0s21x1FH7yzGGWGxMF+I8/XYcqo1HQLezftgThcE4UcVOOZeDfuMsPeh/k9FGWewl89EMy5Yn4iPfzToO2lYmoGxDlGGS6ZMmfIac5kYDfqn6XXtd3NKNxvIsMavGOMYEA4u9lzrZwNaa6qmcD0pjsXBfdhazj3cxtdUrn3b2sXN43aKVUvww4+UwEG6fBA+k58f89BjVzWn4Bf8V44wU2GjNfovwKq6+j7KMAVp3GPqcIeZz/8wAqukRjcflLNuAse8avlBTnpheeCMoC7ko+K+RxCvhfh/BAuduYRjHMx9R6mvIEYTODC+aqN44gBdf6xYTvq/w/6YPTClwl4MpEtvxCOEXfCZZUbd8BVotXr+2Ws3H2kcOnny5KKmWyNPowqcwEz+WaccsD0Pl1ViUg0dbb4bca8J0sk13lucv4tlMeHFaKQTB0zPONaVwSrTYQ1fMUZxk3atlWkndpKJWtSIwSVLdst22gs8x/a4/ELY/SnG/NdUjvW01xVbYqKOJPjhR0ng8GFET6UjHoQmfxy/ETNhR4Xd6gjHcQ9hi3by9cK1CFbyq4tCLF26dFekezLshdyGkfmAsSG+AsEqljbrA1ZzgcM6RhpvRxrDBlEHZo49BhFUliPDsUAdz0AZf4r0RogcfsY5Dmj+XCm9AAUEDoUTv0c7jpmG8gbYmN/PUmGPBBri9yG9bH6eWFZTXjbWh5hLIgPyVVDgmPJwqY7TEK6iYxdxH1+Burk0//uRY1nU2btMcDEa6aNbDkfD+AKXVSjn9dT2oX//v+CYEBO1qCG9i5pfk3bjf+BsqFKFKp07QuhuxPfgf020kQQ/+sgIHOThCDzc/LEcuXkxxgblBoQp5jexC/+RIa4Rg175GceX4XxV1jQy3eJXwzjjY1i62P4baVdU8CK+uggcxDsL8d+ak9YOC8oKO9UErypIn04FuczBsHzQzLEnYewRGBcFBM4wM+fvq7awYJ3D7gsrp8kDl1RYYIJHCuSr4CsqnPsrtt3FzB4rBcTdgbTS+WnTWHdIf6kJKsKgc79MMn4q/d5w/E1Yo1eMsUHtT8b7Uon4x03Uosbcf1rbizzXem/KtdKlLuFAgctZcBC8dw5E2OkffviREDjsekd618CGCQOaeQCtQwNyBrZFvergzAqE/T3K5b9CyIuLs0G+gGAVnx6K9NjYPhlWn0iX6/lU9N8p4qu5wDEi7lTYsF6MwJD2BqR7EZctMJdUHaTHVeiXme9tbl645XfgnPHmpxiBY+KncD3RXFYV+H1GWvz+j3CBwM8wTo3+sAkeOZDvQj049+O3fbQJWhVwD+ciHXpFHpE+JzSg/i5nHZvgIh+O3aAH2yGBE97oFWP0povG9R6v0zrMRC3qQO9RLXPSjrXcTNUvyTgOx3OsFRx4bqKNHPhh113gsMHEw+9TSC8T1pjwGM4vmzFjRqiDv9HANR/Eg3Ntbtm4T8O5OziGxAStCKYcH0M62fw0seWMlor7RkKcNRc4aPgR9ZzfBmnlmrlXtyD9qo1DGQ2kS/9JFK/D8mTu98O4P+N6fVRkD842fMe+RIFuLqsKyAd7zO5GWXZM0w6Mx7C9EtvI9vgj/4UEzmdKHUhcLHQiiPr5CtPLrz/zneX6WlVZzX2ngEszQODcxoGppTqK47/+bfzXn7S/I8d+9YUDxlOO/cusW/prKvb+eI69KuW0/PfgkuqM+SgX/NjrKnD4r5oPP6QV6qzM5IPeVS9A8HENOkTDMxvX3Z3fQJkH2gtIjzMUK9aLgzj3Qfw3w4YNADXpPYBtxQcyIt6aCxzEewws1McI0uVA8PeboDUFgsRGHm7Mv9+mLtjbdPx4Zq+NJXAYL87fwXTNJVWBr23wXe5GWpy9FZYHDniO9Pp3yN8IgZNTlrOqLXB435EOex1HCERzf38btsadMKSdeFfGsVaXMz2cDSmu3eh1xd5nohV1YnDp0l250jjHVJX6mmpdF74Ljr3ec+OXDrZX9wdcKvix103gIH6u38N1p3ry0w+M+cD5v+EB2GIuGxe49n8QT9h0bfrYuAx/6sc1lbcAuyBeLs0woiwoAwel/qQa4wsQb00FDp2rIc7zwu6X+c5wCYOqDbQdC6RP78f+cgOB5eT1subm4mc1FhI4Jk6+iqvqqymC7+jrkN6oC8li+4Nq9yCVC+qpkMAZdTXxSoL0jkRa28LqEHm7BSKS4/JEGFm35f0b0KCV03tj1q26a41eT0WCbIc1y3PtB7ctmjfifhVj/C6wR89zrb+kj2qLZI8cfuy1Fji74GHycqR3GOK/Evuhq4bTTJ44G6nkHgE8tDhFecTAZcaN4yuwP9MELQtTJnaBD5vNE5QB+TjNBK0oSLemAgdxzkecfAU1LD0a6pjrSn0UwSo+eLtYUM+HIi+j+T3hlPWiG7EiXlH9CudmmOBVA3k4AOV5KCR9fof5Sq4q361KgnzWXeAgHfoPGjGGifcXebsTW00VD2PQbdsTDdqFWxeVvho1rxvqKbC+15+o3Iq4onR8x3+udT3vS6nCdWjxTfs/vZ2tkez+xI+9kMDhQNxKsAu7iI3794WI9wfY/ocPvPx084yvFS7jaskmnnGDcnDJhF9zIGFu3EwXx/vQiJ3CsTMmeMkgLo6ReDA3DZqpR87+ajZBKwrSranAQXmOQ9z+Wj8h9jQEREWWoCgV47L/IlPvO8zUB79Pjgk6JqMJHPPd4bpY9FRedTGH9LlS+IieB/P5dtibTNDIgvqqu8ChuEUefC/Mufng/cVxzuJ6swkqcuHimhAov+AA4VIFDhtQei/2krFPcEaWiVrUGQic8zOO3cfXTWH3bSzjdwKida3X0ZKI4n3Fj7pqAofv1RFHCx4si/AA4TpCdyAdLnDn93Lkp5lvCM8lF8oe+Ic4OIB52MBfY9uRt2shvMp2xoi4WY/D3M3TzGf2hFVlDBbKVlOBg3jPxHdj2NIEgSEtzoKrSI9YOSAPp8BGDGg1dfKhYl8VhgkcxoFjFErXx+Pxqg9KRVr0HvwJk/dhZvLF1dO5FESkQTmi0IMzDzZirB/rEXmTwBmNNW7rm/Ev/a9cXLMUgcNrOP6m17XXpTqtSA8Wm2hAcJ4AkfPUkFAJv3+FjN8JXJ/xXPv9Ax2V9+ZaLvhRjypw8GD9DgfeNTc32zh/II4fhOOHYv9IPBDYE5OALcZnOnzjui8fxZbrBH0Nx67A/p9hwQq/vkM4xsstPhc0XHMVGpiKLKmA+N6E+NgFPSwNkw+uTnywCVoSdIfPusqNO4gfcS+DVc3ZHeKumcDheCXEOWIh1OB+Ynt2Ob1tlQL3gss4LAvylZfPS3CuqKn6owkcbClkv4JzZS3mWQxIi+PUuML3jjwExnyhrB8yQSMNyhAJgYM8cHLBjjzQWI84LoEzGim39diUY60s1bU/e284ONlz7AdSHfGyHraisnjJFgv39u7tJY7DMeOq+r2k/ZVUx5uq/kAcL/hRhwocfsaPngsasgv8r9j/G+w+7N+PLVd0fgT7bECXY0tHavQFsgpbOtPawOv5WogPD1p+/GFmwqynWEBcs0wWy8b0JPGfblh6tLNwruR/wYjnQOT36fwymgfn9/hqzgStOIi/ZgIH8XF++NUF6jESixYiP80o96/z74f5/Kti3Q0UEDj8fn8O56r+e0Y6rUjvxvyyGMsgDw3xhxj5lMBpVLKufTr+pW8sdToxr+Pq1SnHvpKvu0y0IgKsbG/fA8LzusHFpQkc3ldcv8Vz7Z/0Ljowcgu64UcdKnCCY/zxF2MMm2v5cRWy4Bo8ZCiePlqJV0b5IJ0TYM/npptjfLiVNEYG+X0xrj8tv9zmM33fvMcErQqIv5YChz1hXEgyLK31XCncBK0ryCOn638zLJ84x8VW32iCFqSQwIF9AeerPnEA6RyOPITeXxxfju2RJmikQV4lcBqVtGN/xh9/U67AceMXQOBU7d+eKA3c3+9zsHAprx+HvFrHByCAb+2P4MKb+FGPKnCqaUwvEEf4zB6gy9BAHmWyVXHQGE3DQ2y03ge+clhkgo4LxEn3+dfk1x8/4zgXPazq1FOkUTOBg7gWojwPhpUVx5/H/YvEYFezFtmnR7knrJN2E7QgURA4SKMTdftckH5gpiz3Njc3R27dqTCQVwmcRgUN4Nf4D7/UAcZsBM0g1o9wmQATrYgInmN/BQJlC0Vo/r0byyh6eW+9pPVkpnte1aeUjhf8qGsicBg/LRA1eKD04/j9sB/i+Nur7eiLIM2PI60RPnFo2L8YjcW4e9gQp4tr+WpuR5w0E+e5FfSzEwrSr2UPzmLYChP3MEM6HGt0gAlad5Anv1ctJJ8rcZ8XmmAFiYjAWYw8jOad+U/VFtCVAnmVwGlEOHA0lbC/N1DiKwwaG84+vxG0326iFRGix42f4TnWag4YDrt/YxlXh4dA8vrctqpMFS4H/KgLChweL9UCMWMeIHy4rYY9hofyTfh8HvbfMjg4WDOfKUwP6T7MvLFsefYPHB+X/ykztufc3AYwMKSTQjmrur4OQTo1EziI8x2Ib+Uo9Xd3S0uLZYLWHdyTk8Lyify/gG3CBCtIFAQOvkNvRx6GiXKaycd1sJIcYNYalEECpxHpO272Pmi8fs51h8Iat2LMH6fhWpsybrwh3qdONDJJ6xgInCdK9Wg8tGSD1Zt14m0mysiAH3UhgcPpsPQKS2d83BYyenVlr0wvtj18kMBWwpbh2J2wH2H/o3iYHFrtXo3RQBn3Rh6+PkpZ+ZD7wHi8DSP8AbjuT2Hx4dxVKGstnMDVTOCgsX0n4nt+lPLegvKOa62waoKsLGE+Q/LKWXNF1UkUBA7S4dixHekHZsr2C9yT2SZopEE9SuA0Ipnk/k1p1/oNnfyFNW5jWTBFPO3Yz3iu3RDvUyca6a74W3B/7it14c0N3X7PT2/66JZIDMLMBT/qUIHDz/jRc2zMz7H/XRinqo5mlyPc/yD81/DA/QL2P4RjnDr+FsuyXs+eDo6LQHJ19wOEPLHLnw1UWHmvwn7Rg/wR/t0wirph8WDL1atPMcGqCtKv5Rick2HPmbiHGY7fGiWBw+8f85mfV+STPThFOfuLiMA5HjbC75DJx9XIQ0VcKVQb1KMETiPiOc12yo3dSCd9+Q1bMZalQeBA3Czrca0DTbQiQmS5kKpj3VnqPeYSHhBIfSnXKurdfy3BjzpU4Jgf/S+am5v3x/7LxjL2ynDhTD6o6Bm4GusuVQKUrQV2Q25Zaab8dEK42AQtCMuLay5F2YfFQ4PI+we280zQqoJ7VMtXVHxdMmI6vLG7mBcTtO4gP+8KyyfzD2uYMThI/zikxR7SHXmgMR84dx0sMnVeCORTAqcRyS6Kt6ERu3Vzia8vKG7Yi4MG9IFMR0tkBumJ/8/qzrnxtGPdWmovnT92x7HXcUFWE2VkwI+6kMD5MY7vbYLuFLAnCeX7cFiZ8ZmLYn4ZwcYcF4Rw7bC/5cbBfRyjS/2LpkyZUhOXAEivlq+ouKI1pyYPS8sYRd18E7TecOHTM/LzGdQJyvFWE64gURA4ps6zQfqBMR84fhvyVtSU93qDvErgNCK9XS0HZVzrL6V6ug0ETsqJ/dXrjMdNtCJCrHVa5kDg/LHUcVZDg5Otfq+z9R1cpdxEGwnwoy4kcH6K/f1M0J2GWCxGfy50YjiizNjePGPGjDF7X3D92Qg7bKFQ1iGO96FR4npMNbnPSK9mAgf18zbEN0zUBWnhOMddRcJJ6b777vtS5OXzYfnE9vZiRUEUBE5TU9MC5GFlkH5gps4fLVas1RvkVQKnEfGS1mFoxP5ajsDhtse1bkklrIYYET/ReLYjPtVLxH67vUSB43szdqz1qUT81MGIuQHAj3rCCRw0TK9Fubjg5/b8cuNzLxqNM0zQUKZPn/46XHtNSMPH1bRvxbZmdYb0aiZwEB8biBtyy52T1rgWsqwmyONUGMeGjcgnjl/D164maEEi0oNzCPJwX35ZaDjXi20kvEePBcoggdOIpJ2Ww+nKv1yBA/tjj2tHbhqxmDRp7dHNkz3Huq5cgZNJSuBEhN1RviTK5i8pEVLuH8NGdcOPho0DlVfkN3w41o9G50PY1mzNMaRVM4EDYTAZ8f00t9w5afnrInH8lQleN5DHA2C35N9bfkYe6eG4qNeuURA4qM8Y0rouvyw0HoMVFONRAfUogdOIrOm0Dss49p3lvqLiGA/v6Oj4kRD/n3TigOmea/+uVIGz4xWVa71jcJJeUUWBGTNmTEf5/o7yDZuhYsr9EBqvI0zQESDcN2Gbc69j/eE6Lipa015YpFkzgUPxgvjOH03g4Nx3cW6KCV43kJcE8rIq9zvNfXOPPtje3r67CVqQKAgcpB+67ATN5EuriRcJ0pHAGS+pRMtBGce6vVyB4znWPemk3WqiFRGCPWsQJzdvK3HBzWCQsZewI9GFnwt+1BNS4HDGF/7Nn4Pybcotu9nnGlIcbDwCHOfrjz83NzfvuIaGY3TG9lPGa4LWBKRbM4FDEN/7EfewhirHHmlqaqr3TNBdkI8P53+f+Rm2EaKk04QbkygIHLC7qfMdeQjM5Ov2CNT5mKAMEjiNSKaj9QD8O7+lVB8pFDicKu659sMZt7kh3G5PNNYkYvMhQG8vdRZVME28J2Fx8GmkwI96QgocAoHThvI9E1Z2bG+AiBkxEwrHT0O9DHN2Z+qKPQbdtZ4ej3RrKnDQqLN35Kn8OjO2FedOQrCaeafOB+lPxX39mbmHwwznuDRI0TO9IiJw+GpwIdLrz69zfoZ5KO/7TNDIgnqUwGlEzL/735fqI4W9N2YczoqUE4vEYnViOKmO5oMhUO4q2Q+O37tn9aa6Wg8yUUYG/KgnrMBBGV+GMv4GZeQA2fyyP439E0xQH77aQD1dFVJXfM11dywWe7UJWjOQz5oKHDSmiHL21fl1EKSJ8z+oxmrwxYK8HQsbJsCCfeTtEoiS15qgYxIVgYM88B7/JchDrpmexB/VuudwvCD/EjiNSGpxfKrnxq8p25Oxa61OuzFVcARJJe0FnmM9WKqvIy7VkHKsrNcdPTcA+FFPWIFDwYLyvQu2Nrf8Zp+i5YcItmPMFD7zAflISIPH5Sm+vLQOLgCQbk0FDtgVQuEsxD+ad91nYHWZ2WPGCH079/7k5Gszzh1rghZFVAQOhTPy8eWc9PPz8yS2kV7HEPmXwGlE/uPEX+W51k9KHYBKM6tUb4dQKvr9sKgdPUn7ZAicp82SC+M204OzNrswFrl1Y/CjnrACh6CcU1DGB/MbRfP5gRkzZgTLD+yC+jgb5uXWlaknOo+ryzIrSLvWAoffmSMR77/z06SZ+vg+bB8TvGYg7S7kgYumjsgX8nNvU1NTUdPDA6IicMAuSOsI5KUvrGzIH8XmlTg/6sy/eoO8SeA0IoNLJ+2a6bIuHSxT4Kzzx2nEarJ+jRgfXsI6C5bx71HI/StkfP1oBOxjaTc2zUQZGfCjntACx/TiXAwbNsbB7K+FcPkQw3E9LdTHn3F8WM8Fw+H4NWatrZqDtGsucJqbmycj7sty0wvM1EcG+6eb4DUB6e6NNK/EdtjrRpMfOmQ8a/LkyXua4EURIYHD+zwVaf4ONmDyMCxPON+D/Y+Y4JED+ZPAaVQyjv3lAQgcf7p3CdZLgTPUCJ49eMr0PUy0IiKknfg3IFS2D71KHJ/5K8U79va0a/1hTSL2OhNlZMCPekILHGL+HT+R25AZY2P5OzaMEDqHIswzuWFMHT2H/Zo25rkg/ZoLHLAr4u9E/OncNANj2kj3Xli7CV91kCZ710J7OHD8URwft4+xKAkcCnHkYwnysy6sjDyGcw9h/yhzSaRA3iRwGhU0YJ9gQ2YGC4/bgn/5nmN9e3XS3tdEKyJCyrV+XuorSNPrsyntWJdlT4y/ykQZGfCjnvAChwIG5bw+tyHLqYPlaMj4SuZrsGGNCwd44titED+vN1HVHKRfD4Ezaf78+fTP8v2ctPLT3wr7Deqw6iuMo4wnwVbm3z+Tr/XYfrxY3ze5REngkFgsRg/aXCiW653tyBONn2EU5H9CmMitaYg8SeA0KvRQm3KsDHti8hu4YozTxHltyrF/l+qKNcTqsBOFZxbGXp12YzeW+gpyyAeOtQ722YGTozfTAT/qCS9wCETKmShvT249cB/HUrCrYP/Ese2557DlwNWvmSjqAtKvi8ABHBdyGOL3VxfPrbcgfRiFwM+wrZqHdsTNFc6XhaWPLe/XjXylZoKPi6gJHLAr0uQ0/efzxRyNeYNx+ZE/1GJMGPIwpbW1tahZacizBE6j0uvYibRjP25eM43bKHCyvsCxnu5Jxkb1oCpqD2e2QZw8uLVEJ3/0geM5tofvx0mD7ZPG/S+y2uBHLYED0HDMQXnvZK9Mbj2YhzLX/Bl23NTPMuwnTBR1AXmol8DxxyVRGCKdTWENrjnG+rsW+ajo6yrE93LY+xH3CpZ1lO/vU7CF5pJxE0GB46+Gjzq/EPnYmF9mWk5d3A47oRrCoaWlxULc56BuLkfdHG0OFwRhJXAalX63+Q1owG5iY1bKOJzAF05f0t6Wdq13mmhFBEi78Q9CoLwwNBMq/P4Vsk10H+DQBUBrJH88+FFL4BhQ3ktRD/RIPKwu8uuGZhq9n0IQjXAGWEuQ57oJHGKmMP8YaY1YuJSWc+we2PtgM82lJYM43gS7EDZsen9g5lgGQuAT5pKSiKLAIVxmBOlzfarQOqeZPHMV8i+hHg7lFHpzeUlMmzbtVYjnEMR3Gux6pmGsqIHNqEcJnEaFg0fRmP2A3oxLHWhMgUNfOp5jfWFwSf0XrBNDZJLxy3qT9mYzE2rcRoEDgfTP9NsOmG6ijBT4UUvgGFDWY2D0KTKsLkaxdbC6z1rBPaqrwCFo+JDM7N8jzREzfAIzxykMft7U1ERnfGhzY3uZKMYE4fdBHAdi+0HEwcZoxHeWZhr2dcjThW1tbeOaNZVPVAUOQfqHI293jFYPtOAcwv0d9ikce4u5V2NOJ2cYiJomlPGNKH8XrrsAx/xVzYP0zDOiqFe0CCeB06hcM2nJbmnH/hw93ZYqcHgdewlSjnV1Nhk9fykTkcH29j1wb/5M4VnKfeWsq143vj3lWn/sOTSaC+LhRy2BY+AgTpT3l7kNWpiZuvkzHvpt5tK6gXzUXeAQpHMw0rwZNmqvAs2c24DwXO3709guxLYVDekc2DR85lpfU1taWqajnudinyuDH4swF+G6R3PiGGE8DuvD/iXTp08ve8ZilAUOwfevG/m435R7Rx7zLTiPsqyC/RrHzkGZjsMxlu8AfGbDz3rmPTwCn4+HfRbx07fOI9j312ujYX+HmUH2V+27775jji1EOAmcRibtWO/Kuva2UmdSsQHljJtM0lqOf/x1fa8vhvBc+xDc1+Wleqnu9wcY2324t+cNdMx+sYk2UuBHLYGTA8r7CZR7xGuqXEPdDCDMeaXMzKk0yEckBA5Bmuxh+QO2wxYwLWDbEZ4DtZ/H/t3YXgf7Jewa2O9x7H5s6d+Fs4NGeE7ONaYH41ipC3FNRZwMRl3gEOTPRV7+CttSZJ3TWJfbcC1XxOdU/1UwD7YJxyhCWN87BtSPZoEwKEboI5wETiOTdeJHoVFbwdlQ5fTibOxq3Y79swfruGCdmDTpNjReqYT9ec+xMv5MqLx7VYz5K8w71rOphHUMHUKaqCMFftQSODmg3PR3478Cya2PwHgc5+n7ZrG5pK4gL5EROASN/hykfTnSpggY8b3KNZ4LzBxjoxo0rr6gCQkzzMxxhn8W9gncv4r1lDaCwAH0SdSK/HC22qacPI5qPF+MhV0bWBCG371ivmMII4HTyKARa/Fc6zfshSm1F4e2bTFfU9m/fD6CXm8nEmva2/fC/bi1vys+wFlu+fepGNvmTy23Hst0z5thoo0c+FGPKnDwz+xn2J9QAoeDMVHmC3IbtVxjPeFh+Avslz1YthIgL5ESOAR1yIHHH4Qtz/9eFTKGDSzsfJghDQqi38KOGq+n4rFoEIHjg3zS0/FnseVaYDvyWy0z9fAE0vsY6mHMqeIIJ4HTyAwcN/UlaTf2ec6kKtUfDo3rHUEorejptBeZqEWNGRyctIuXtA7Dffh3qQtsctr/UM+P9YfB0+rjxr8Y8ANfzB88f+TcBsb363wHj/MTSuAQPOw45uM51kPug5BmjtFzcSSm/COvFDj+2JT8fOL4MtzDLhO0prDBQvoc08GxM88wP2H1WYrlCI470biejm1VxGZTU9PhqL978gUOysVXO1+MksAhyBenzrfDvgvzfTpVqs5pOfHRJxQF3huZpkm+IAj3HhjF6LD4uMXxT9VQ4KzOrxMjcO7G/uEmqAgjk7SOybj2tnJeU7G3YFN3fIuXsM8z0Yoa88xxB78k48a/5DlWf6mvp4bG31h9iOOrJtpIwh81ftx3wv4KuyPH7sW5c/Aw2NsEnTCYOnko/0Fo7DGIv7osrBkG8tjMewXjwF3aehryyXFE98Pq7adnH4iEtyEfX4TdCduWL6ZxbFQLwgTXID6OybkaRmEzr5rjoJBvvq68FelwvEpQrxwzlMKWvSWRXNwSedsPee/AljOf+Dse8QeGx0az3HA59f4c7CqcPx1xHzJeccfrgvgC458obnHunFoIHKQVRxmeQj441ij3t8L7+yecP9QEFWH0OPG2lGM9OuS4L7zhK8a4LIDnWrf0dMWr7uZcjOSFY1qme479QB9fT5V4H7d0t/o9cVEfME7/FviBH2SM/kV840MM25l8ZWOCThjwsDsZZWcjNuyhzy3OfS0ej86SG8gP/7UvxP16h7G303DsROS5Aw/tKSZoXeGUcNQfv2OnIF/nIX+czfMg7AXYVjZ0tKDRY30jTD/saRiF0Q+x/TSOLxrvquClgrT2hnGZjpOCekU+TsDnY7Fv1WuB1WLhb5uNNvL7bpTjfGx/g/w/gC0HdfuDknPrHMdY52zwV2PL2VPXwS7G/sdgLspc8uxexDMfdi7i+XxgSN/fIl4Ki6r3iE6fPv2VSIsrzh+Pbe5v5STk5QjYhPszNy56Fx34mpRrfZ2NIhrH0IavGKNH5HVJO51O2p8xUYsaMdDR8eJMwnqP51gbNnSV9nqKvXdDa1dZN3OpBxO1aAA4fgQPwO/woY/tMIGDByH/8bkmqCgRCgM0qHNRp0eysUGdcrwO/bTQOy4bvbNx7kw0Pu/FscVspGGREGqNCuscddrMOoe9A3X8AdTtJ2HsiaLYOBv7H0Gdvw+fT4QthMVQ75F0byHqRI8T6/Jce5NZZLFkM704N0PoaPHNGpJOtExHvd+Rde3tvW5p97APAhf3bQMEztdNtKJBgLBZiAf9o3iwDxM4xm5raWmZY4IKIcTEYm1n8/5oIP+Of/Elz76hbez2x/G8kHWsD5ioRZUZbG/f3XNiSyBQN/tjaELuSzFGh4+eY/8jm2ztMFGLBgHC5lz8m+VK2DuEjdmnl96P6x+tEGLCkj6q7RUp117qOdbW/jJmU2WSXKgRDWXCvim78GC95qgBazqsWRA4v2XdlzMTbru/MKd1zcruea80UYsGACJmv9mzZ/9ffu8NBQ6Or8H2QBNUCCEmJmmn5XA0dB6njOc3fuOxjd2tnFW1JuVYH4uqo7idBb/3xrXeC2GytRxxM7RmldWPuM4yUYsGASLmZNjTIb03nGXxy2L8fQghxE5N/xIuvmndwgavnMaSr7i4PpXn2A/1HK0ZVdUklWg5KOPa9/jLZeTdh/EYX09he2tmcfwNJmrRGOwKIXMZBM2wJQGMwOml+In6rBkhhKg6XHfIS1ofgMjJ0nFffiM4Hls/dP3GtGN9Y82S4lffFcUzQL83jvWF9V3xktcSo/Fajt3Bvf8ie4RM9KIBaGpqorv7u8NeT2H7DxyPrDdqIYSoKf5sHMd6hAKFYzrCGsRijL0JQyLHejaTjB1hohcVpDdpubhXK0udFk7jfaKYxfbhlNNylIlaNAgQMVxk0wt5PbUe20srvQyAEEI0LINLluxGb8QZx+4zvTAlG6cdm7EdN2/s1j/JSuI5zbbnWtdvLHO8FHtvNi9qHUy51gVr2tXT1kjQCR1EzO9zxQ2NvTkQPc/DFiCYxsAJIURAj2s3pxL2w1zPqJxxHTTjOHAgnbS+2Xtk82tMEqIMHocQSTmxr23sntdP54r5dV6s8d4OLbIaX57qtNkYigYCwqYD9lTu6ymKHSN4bqUHVBNUCCFEQNqxLuh17XWlrmkUGBtR9uRkknYajei7B5dMPBf6lSaViJ+KOn12aFmF8HovxnpxX+i3yHNiX8loanijsRtEzI9gGwNxQzNiJw3TbDghhAgj1RGLofH821bfN0p4A1mscSwPX3dlXftBfG43SYgSWOPG3uy58Ye3lHlf/N4b3BeP604lLC3W1ljsMmvWrLbZs2c/GfZ6Ctu/43zJ6+8IIcROTyppfy6bLH8sDo0iZxNfeSWt69ctbrZNEmIcUHSmHfsmjmsqZxo/bWhslD0AgfPJVMebIrm6sAgHwubFsG9DyHAg8TCBg8+bsP1fE1QIIUQYaxZZs1KOdYPxkVK2sddg46I4ew1+le2wZplkRBFkuufN8Bz7WgjFreUsx0Djqyl/zTHHvqe3a678FDUYEDBc3frfo/TePA7TbDghhBgLr9N6r+dYa8qZipxrbFxpEDk/fOG4+fuYZEQB+hc3T/Zc+wcQiBvLFTc0E0e2x7FPGpQTuIYiFou9bvbs2VdAxGwJ6b3ZNmvWrB/KsZ8QQhSBv0aVY313U3fr9nIW4cy1od6D+GYIp2+ll7S9wiQlQuCq7Kj3C7mMAgd8sxcsrE6LtaFZV9Y2xHPFusWtcuHfQLS3t+8OcfMeWF+IuOH2cZxzTXAhhBBj0eNYb0WDeC99rpTbwAbWzx4hx96QcezvrEYjbpISOfQcNXcK6ugi2Dr2upRb9/4SGn7vjbWip8t+o0lG1B76pmEvy7i8Rs+cOTMBETNszanAjO+bS2MxzVIUQoii4dTuta79ETSwG/wp33kNZynGONgjgUZ3g+faV6Td2DSTnAC9zvw5nmP9CPXTV4meGxoXQUU8qXRX/IzBaybtZpISNQZiZApEyRdgF2M/bg4Xgj03J8GWjSZusL1v1qxZbzPhhRBCFMsLHfP3STvxy7iIZjnrHuVaIHL6knxdFfu1t7hVs6tAv2PN44Di3mR8I3tcKiFu2APUm7Q3Ia6fZLrlAK6eQKR0QJBwMPB62P34fBXEy6ewv7ipqelNzc3N+8disdmcCg57F47T383KMHFjjvUj3JnTp0/fwyQhhBBiPPQ48bZ0Mn633/NS5jTlXDMiZzDtWDd7iViHSW5C4iVbO1gPGTc+UIkBxTQKJE7RTyWsuz1HIrLeQJR8HraR4oS9L9xC4Hiw5bB7IVhug90KuxuffWFjemlGGI8jzE8gbl5nohdCCDFeHl8S+6+UEzsu49jPGxf/oQ1qKcbBr5v8OK0HUo71sT63bW+T7IQg68Rf1ZOwPgih9yB7bcpZgiHfti32xzs9nXLmLTbJiToxbdq0V0GYXNvc3DxMqAQiJt94PDdcrvE8xM0dsANM9EIIIUpl0G3bE43lZzwzZbkSr08C4yBYLvyYca0sBx+nHWueSXanZm1XywFcq6vPtVNbUX7WQ1j9jNe4jAN9GEEwrclANJrkRB2ZNWsWX089RnGSL1iKtZweHXos1rgbIYSoFL2Lml+Tdq0fQtwM8PVSWONajrF3iOIpm7RvgNg5dmedzswp4KmEdUwmad9I30AbKuAxOtd4bzZ02f1rXevrvGcmWVFHIEo+O3v27C3swSnUOxNmOcJmO4yvsOjQb5ehmIUQQlSETLK1KeVaf+hLVm6sSK4F40Y8x05B6HwzlWg9aM2S2F4m+YaGvWC9KE86EbsYZU35Y5ryyl+u8RVXfzK+LeVYP1vb2bq/SVrUGYiS4yFw/oDtE9j6/myCV1GFLOjxwTVPw34Mi5kohRBCVJpMIjYfIueO9V2tfoPKVyJhjW2pRpHjLyswFPc/M651Fpd4GDju4JeYLDQUzxx88EuyydjsjBv/eNqxn+BstL6uoXKGlb9UG/IWHR9AvDf2dMrfTdSYPHnynhAo7bNmzboAooUDiv+Fz6uwzWC7DluuEE7jLKusOfdP2LUQO92aLSWEEDUglbQXoLG+jz5Wyl0AMsyGRE7cFwJIZ2PGse6BMPhw1onPXLWg9aUmG5FmsH36HquPnDMzm4h/MI38Q+BsNiKkKuLGn8bvWHen3dY3myyICEKnfHPnzn0Ze2Ngx8HOhoi5EPa/2P8ett+EnQsh9I6mpqb9p06dSmGvV1JCCFELBpdO2nWtYyfSSfsBDhD2G9eQhrdcY7z+zC3sZxy7D8eWwS7OdLQcMHha24sGI/bgZ36Yr96u+Ny0a53rufZDyH8vBY0ZXxRaznLMFzfcd+wHezpjR0StTkRBdqOAgejZC+Lm5TSKH/b24Ny4PB4LIYSoEIPt7buvdWJLel370S1D3nJDG+BKGBtxjlmhZVyr33Os5RAPV6BRPynlzNvPZKmu9HTNnZJ14ycivz9OufZjqJcMxVklnSTm21CPEPYd+6FUp70A4obLAQghhBCiHAY6Zr94bUd8SV8y/vCWRfOqKnJoQU/IZn8gsrUNwuHfaNzvSjvWZT0QF88dPXeuyVpN6HVa5vQ4sZMySfs7EDV3+flxra3MXzWFDY1OErmEhudaf886LZxZI4QQQohKcX9b24tWO/bivq74ffS/Us1GPdfYwPP12DYIK35GQ/9UxrFuT7mxX3iO/ZV0ouXkHtc6sP/o5snlvrZZyldyR79hck+HdWCPY5+EeM9nOkyP6SL97dsWz/Pzw3xVU+hxULc/pR7pQNz9NdNtvdVkUwghhBCVZOkkCAA33tnrWn8JGvmwxrlaxoG7nF6+HSJjAMbeHdjTsNvTrvUrCI7vecn4VyF8PgFh8m4vab+9x7UX9SLPmS7rbYijPZOMHeElWjvSyXg3RMs7GC6D8F7S+mrKtS+HsPgV46OgQTzbmQ7T40DrWpWX4oaru7O8Kce6Ie3GNKBYCCGEqDYQA4ex4WUPA6eRV/uV1WhGAcClD9ijRBEyeMyQGDHCZy0ECsXPE7BHEP5vEEH34Nh9EBAPpf3xPdZKnFuTduxt7JkZNGLG9xDcPSQw8tOshTH9dcn4RuTv55oKLoQQQtSQVEcslnKtn2Vdu28jRA7FAHsewhrsWhrFFvPiO8PjKx5fhA0JIY6X4Zafg3MMxwG89RJpucbXfhQ365P2GtTlJZwub6pbCCGEELXihY75+3iO9dW0Yz3LVzgUDGENt2xs88fbwCC2nupJWGdluqe/0lSzEEIIIWrNYPuk3TOu9d60Yz+4LmlvHZriHd6Iy0YaV21nrxLqcAs+/w11t8hUrRBCCCHqCR0CZjusAz3X+lWva/cPTW1Wb04howhkHbHnBp97Pce6Mp20W+XATwghhIgYTyXtfdMJ+2zPtVf2JuPbORamVtPJG8lYJxQ3WTe+3R/snIydxtd9phqFEEIIETXWtMf2grA5OOval6Mx7+c6U1EZxFtvYx1Q3PA1Xtq1+tPJ+I/ow4eOFE31CSGEECLK9HQdMMVLxk5Aw34reyvqOZ08CsaybzB10OtaN7NuUh3xqaa6hBBCCNFIpB1rXsq1zsk41nI66aNNJKHjC5vuoYHEWcd6wEtYZ3GsjakeIYQQQjQqg0ti/5V1rYVpx76o140/xFc0XHrBX0AyTxDsLMZeK/q02QhxA5HzWCZhn5fuaG4fXDJpN1MtQgghhNgZGDxl+h5ruEyCa18MAXA/hQC9B+8sU8s5voaChuLNc6ytOHYXRZ2XsB2u5WWqQQghhBA7I4Pt7bv3uPEjU2j8+5L2bZ5j9/DV1VZ68W0wsRMMGuYSD+vZW5O0nvMS1i2wL63ptA4zRRZCCCHERKK3Kz7Xc61PZlzregibZdj2ckkFfz0oCAe+6omS4GFemCeOq9m6aJ7vxwb5T/cm4w+n3fjVnmufnlnQ2mSKJ4QQQoiJDKdKc8VvCITzMsn47VnHejoN4eA59jYKHfbwsKeE4qKWvnUCnzVMO8gDBM0W5CuVceP/wvamdML+fLbTfuM1S5ZofI0QQgghRjIIkbBmSWyvtNv6Zi9hfdJz4tdARCzLujZX/e6DuNjq96BAaFBssAeFnwOngjT2shTT6xOE4zUc8Mx4gkU6GTeN8XqOtYU9S2nHWo39R7ykfQWu/0h/V+sBz7tte2rgsBBCCCGKZmX79D3SR7W9IuXM2W+t29yecexPQFhcBaHzD2x78XkD9jenIXoggrZTtAyJlSHRQ/FTyIaEEa4xgodxUEBhuxliZgPETCblxB/B9sfpztgZEFyHrkva+6Y6Zr/8STnnE0IIIUQlGHTb9ly3uPW1mWRrUyYxb346Ee/OuPaZECHfgAi5EiLlNthjECj/gfDJ4tj2oJcm33BuG8fOwFam3fhD2N4CwfRTiJ0L0wn7w4gjke6wWzPd82ZwGYVBiC2TDSGEEEKI6jKwoPWlFCBpNzat5+j4XDrR63HibVwuIu20HL62w26HmDmaU7XTnZaboj8eHFuLc71dLQdl3PgbvM54vNdpmbO+Iz61z91/74HjDn6JiV4IIYQQQgghhBBCCCGEEEIIIYQQQgghhBBCCCGEEEIIIYQQQgghhBBCCCGEEEIIIYQQQgghhBBCCCGEEEIIIYQQQgghhBBCCCGEEEIIIYQQQgghhBBCCCGEEEIIIYQQQgghhBBCCCGEEEIIIYQQQgghhBBCCCGEEEIIIYQQQgghhBBCCCGEEEIIIYQQQgghhBBCCCGEEEIIIYQQQgghhBBCCCGEEEIIIYQQQgghhBBCCCGEEEIIIYQQQgghhBBCCCGEEEIIIYQQQgghhBBCCCGEEEIIIYQQQgghhBBCCCGEEEIIIYQQQgghhBBCCCGEEEIIIYQQQgghhBBCCCGEEEIIIYQQQgghhBBCCCGEEEIIIYQQQgghhBBCCCGEEEIIIYQQQgghhBBCCCGEEEIIIYQQQgghhBBCCCGEEEIIIYQQQgghxARm0qT/B34khdRBcFrQAAAAAElFTkSuQmCC;" parent="1" vertex="1">
          <mxGeometry x="-310" y="182.5" width="240" height="120" as="geometry" />
        </mxCell>
        <mxCell id="6fkP6XUHWRdqn1WYPsik-2" value="" style="shape=flexArrow;endArrow=classic;html=1;rounded=0;entryX=1;entryY=0.5;entryDx=0;entryDy=0;exitX=0;exitY=0.5;exitDx=0;exitDy=0;" parent="1" target="6fkP6XUHWRdqn1WYPsik-1" edge="1">
          <mxGeometry width="50" height="50" relative="1" as="geometry">
            <mxPoint x="109.44999999999982" y="243.5" as="sourcePoint" />
            <mxPoint x="-141" y="180" as="targetPoint" />
          </mxGeometry>
        </mxCell>
        <mxCell id="6fkP6XUHWRdqn1WYPsik-3" value="&lt;span style=&quot;font-size: 16px;&quot;&gt;训练协同过滤模型&lt;/span&gt;" style="text;html=1;strokeColor=none;fillColor=none;align=center;verticalAlign=middle;whiteSpace=wrap;rounded=0;" parent="1" vertex="1">
          <mxGeometry x="-70" y="210" width="190" height="30" as="geometry" />
        </mxCell>
      </root>
    </mxGraphModel>
  </diagram>
</mxfile>
